{"glyphs":{"0":{"ha":559,"x_min":0,"x_max":434,"o":"m 239 87 q 254 92 247 87 q 260 109 260 99 l 260 586 q 254 601 260 594 q 239 608 247 608 l 195 608 q 179 601 186 608 q 174 586 174 594 l 174 109 q 179 92 174 99 q 195 87 186 87 l 239 87 m 22 0 q 5 5 12 0 q 0 22 0 12 l 0 673 q 5 688 0 681 q 22 694 12 694 l 412 694 q 427 688 420 694 q 434 673 434 681 l 434 22 q 427 5 434 12 q 412 0 420 0 l 22 0 z "},"1":{"ha":472,"x_min":0,"x_max":347,"o":"m 109 0 q 92 5 99 0 q 87 22 87 12 l 87 499 q 80 514 87 507 q 65 521 73 521 l 22 521 q 5 526 12 521 q 0 543 0 533 l 0 673 q 5 688 0 681 q 22 694 12 694 l 326 694 q 340 688 334 694 q 347 673 347 681 l 347 22 q 340 5 347 12 q 326 0 334 0 l 109 0 z "},"2":{"ha":559,"x_min":0,"x_max":434,"o":"m 22 0 q 5 5 12 0 q 0 22 0 12 l 0 326 q 5 340 0 334 q 22 347 12 347 l 152 347 q 167 353 160 347 q 174 369 174 359 l 174 499 q 167 514 174 507 q 152 521 160 521 l 22 521 q 5 526 12 521 q 0 543 0 533 l 0 673 q 5 688 0 681 q 22 694 12 694 l 412 694 q 427 688 420 694 q 434 673 434 681 l 434 282 q 427 266 434 273 q 412 260 420 260 l 282 260 q 266 254 273 260 q 260 239 260 247 l 260 195 q 266 179 260 186 q 282 174 273 174 l 412 174 q 427 167 420 174 q 434 152 434 160 l 434 22 q 427 5 434 12 q 412 0 420 0 l 22 0 z "},"3":{"ha":559,"x_min":0,"x_max":434,"o":"m 0 0 l 0 152 q 5 167 0 160 q 22 174 12 174 l 152 174 q 167 179 160 174 q 174 195 174 186 l 174 282 q 167 297 174 290 q 152 304 160 304 l 22 304 q 5 309 12 304 q 0 326 0 316 l 0 369 q 5 384 0 377 q 22 391 12 391 l 152 391 q 167 396 160 391 q 174 412 174 403 l 174 499 q 167 514 174 507 q 152 521 160 521 l 22 521 q 5 526 12 521 q 0 543 0 533 l 0 673 q 5 688 0 681 q 22 694 12 694 l 412 694 q 427 688 420 694 q 434 673 434 681 l 434 22 q 427 5 434 12 q 412 0 420 0 l 0 0 z "},"4":{"ha":559,"x_min":0,"x_max":434,"o":"m 195 0 q 179 5 186 0 q 174 22 174 12 l 174 260 l 22 260 q 5 266 12 260 q 0 282 0 273 l 0 673 q 5 688 0 681 q 22 694 12 694 l 65 694 q 80 688 73 694 q 87 673 87 681 l 87 347 l 174 347 l 174 673 q 179 688 174 681 q 195 694 186 694 l 412 694 q 427 688 420 694 q 434 673 434 681 l 434 22 q 427 5 434 12 q 412 0 420 0 l 195 0 z "},"5":{"ha":559,"x_min":0,"x_max":434,"o":"m 22 0 q 5 5 12 0 q 0 22 0 12 l 0 152 q 5 167 0 160 q 22 174 12 174 l 152 174 q 167 179 160 174 q 174 195 174 186 l 174 239 q 167 254 174 247 q 152 260 160 260 l 22 260 q 5 266 12 260 q 0 282 0 273 l 0 673 q 5 688 0 681 q 22 694 12 694 l 412 694 q 427 688 420 694 q 434 673 434 681 l 434 543 q 427 526 434 533 q 412 521 420 521 l 282 521 q 266 514 273 521 q 260 499 260 507 l 260 369 q 266 353 260 359 q 282 347 273 347 l 412 347 q 427 340 420 347 q 434 326 434 334 l 434 22 q 427 5 434 12 q 412 0 420 0 l 22 0 z "},"6":{"ha":559,"x_min":0,"x_max":434,"o":"m 326 87 q 340 92 334 87 q 347 109 347 99 l 347 326 q 340 340 347 334 q 326 347 334 347 l 282 347 q 266 340 273 347 q 260 326 260 334 l 260 109 q 266 92 260 99 q 282 87 273 87 l 326 87 m 22 0 q 5 5 12 0 q 0 22 0 12 l 0 673 q 5 688 0 681 q 22 694 12 694 l 412 694 q 427 688 420 694 q 434 673 434 681 l 434 629 q 427 613 434 620 q 412 608 420 608 l 282 608 q 266 601 273 608 q 260 586 260 594 l 260 456 q 266 439 260 446 q 282 434 273 434 l 412 434 q 427 427 420 434 q 434 412 434 420 l 434 22 q 427 5 434 12 q 412 0 420 0 l 22 0 z "},"7":{"ha":559,"x_min":0,"x_max":434,"o":"m 195 0 q 179 5 186 0 q 174 22 174 12 l 174 499 q 167 514 174 507 q 152 521 160 521 l 22 521 q 5 526 12 521 q 0 543 0 533 l 0 673 q 5 688 0 681 q 22 694 12 694 l 412 694 q 427 688 420 694 q 434 673 434 681 l 434 22 q 427 5 434 12 q 412 0 420 0 l 195 0 z "},"8":{"ha":559,"x_min":0,"x_max":434,"o":"m 239 87 q 254 92 247 87 q 260 109 260 99 l 260 152 q 254 167 260 160 q 239 174 247 174 l 195 174 q 179 167 186 174 q 174 152 174 160 l 174 109 q 179 92 174 99 q 195 87 186 87 l 239 87 m 239 347 q 254 353 247 347 q 260 369 260 359 l 260 586 q 254 601 260 594 q 239 608 247 608 l 195 608 q 179 601 186 608 q 174 586 174 594 l 174 369 q 179 353 174 359 q 195 347 186 347 l 239 347 m 22 0 q 5 5 12 0 q 0 22 0 12 l 0 239 q 5 254 0 247 q 22 260 12 260 q 5 266 12 260 q 0 282 0 273 l 0 673 q 5 688 0 681 q 22 694 12 694 l 412 694 q 427 688 420 694 q 434 673 434 681 l 434 282 q 427 266 434 273 q 412 260 420 260 q 427 254 420 260 q 434 239 434 247 l 434 22 q 427 5 434 12 q 412 0 420 0 l 22 0 z "},"9":{"ha":559,"x_min":0,"x_max":434,"o":"m 152 347 q 167 353 160 347 q 174 369 174 359 l 174 586 q 167 601 174 594 q 152 608 160 608 l 109 608 q 92 601 99 608 q 87 586 87 594 l 87 369 q 92 353 87 359 q 109 347 99 347 l 152 347 m 22 0 q 5 5 12 0 q 0 22 0 12 l 0 65 q 5 80 0 73 q 22 87 12 87 l 152 87 q 167 92 160 87 q 174 109 174 99 l 174 239 q 167 254 174 247 q 152 260 160 260 l 22 260 q 5 266 12 260 q 0 282 0 273 l 0 673 q 5 688 0 681 q 22 694 12 694 l 412 694 q 427 688 420 694 q 434 673 434 681 l 434 22 q 427 5 434 12 q 412 0 420 0 l 22 0 z "}," ":{"ha":217,"x_min":0,"x_max":0,"o":""},"!":{"ha":298,"x_min":0,"x_max":174,"o":"m 22 0 q 5 5 12 0 q 0 22 0 12 l 0 152 q 5 167 0 160 q 22 174 12 174 l 152 174 q 167 167 160 174 q 174 152 174 160 l 174 22 q 167 5 174 12 q 152 0 160 0 l 22 0 m 22 260 q 5 266 12 260 q 0 282 0 273 l 0 673 q 5 688 0 681 q 22 694 12 694 l 152 694 q 167 688 160 694 q 174 673 174 681 l 174 282 q 167 266 174 273 q 152 260 160 260 l 22 260 z "},"\"":{"ha":515,"x_min":0,"x_max":391,"o":"m 22 434 q 5 439 12 434 q 0 456 0 446 l 0 673 q 5 688 0 681 q 22 694 12 694 l 152 694 q 167 688 160 694 q 174 673 174 681 l 174 456 q 167 439 174 446 q 152 434 160 434 l 22 434 m 239 434 q 222 439 229 434 q 217 456 217 446 l 217 673 q 222 688 217 681 q 239 694 229 694 l 369 694 q 384 688 377 694 q 391 673 391 681 l 391 456 q 384 439 391 446 q 369 434 377 434 l 239 434 z "},"#":{"ha":776,"x_min":0,"x_max":651,"o":"m 347 304 l 391 391 l 304 391 l 260 304 l 347 304 m 22 0 q 5 5 12 0 q 0 22 0 12 l 0 43 l 65 174 l 0 174 l 65 304 l 130 304 l 174 391 l 87 391 l 152 521 l 239 521 l 326 694 l 412 694 q 427 688 420 694 q 434 673 434 681 l 434 651 l 369 521 l 456 521 l 543 694 l 629 694 q 644 688 637 694 q 651 673 651 681 l 651 651 l 586 521 l 651 521 l 586 391 l 521 391 l 477 304 l 564 304 l 499 174 l 412 174 l 326 0 l 239 0 q 222 5 229 0 q 217 22 217 12 l 217 43 l 282 174 l 195 174 l 109 0 l 22 0 z "},"$":{"ha":559,"x_min":0,"x_max":434,"o":"m 195 0 q 179 5 186 0 q 174 22 174 12 l 174 65 q 167 80 174 73 q 152 87 160 87 l 22 87 q 5 92 12 87 q 0 109 0 99 l 0 239 q 5 254 0 247 q 22 260 12 260 l 152 260 q 167 266 160 260 q 174 282 174 273 l 174 326 q 167 340 174 334 q 152 347 160 347 l 22 347 q 5 353 12 347 q 0 369 0 359 l 0 673 q 5 688 0 681 q 22 694 12 694 l 152 694 q 167 700 160 694 q 174 716 174 707 l 174 760 q 179 774 174 768 q 195 781 186 781 l 239 781 q 254 774 247 781 q 260 760 260 768 l 260 716 q 266 700 260 707 q 282 694 273 694 l 412 694 q 427 688 420 694 q 434 673 434 681 l 434 543 q 427 526 434 533 q 412 521 420 521 l 282 521 q 266 514 273 521 q 260 499 260 507 l 260 456 q 266 439 260 446 q 282 434 273 434 l 412 434 q 427 427 420 434 q 434 412 434 420 l 434 109 q 427 92 434 99 q 412 87 420 87 l 282 87 q 266 80 273 87 q 260 65 260 73 l 260 22 q 254 5 260 12 q 239 0 247 0 l 195 0 z "},"%":{"ha":559,"x_min":0,"x_max":434,"o":"m 347 87 l 347 130 l 304 130 l 304 87 l 347 87 m 239 0 q 222 5 229 0 q 217 22 217 12 l 217 195 q 222 210 217 203 q 239 217 229 217 l 412 217 q 427 210 420 217 q 434 195 434 203 l 434 22 q 427 5 434 12 q 412 0 420 0 l 239 0 m 130 564 l 130 608 l 87 608 l 87 564 l 130 564 m 22 477 q 5 483 12 477 q 0 499 0 490 l 0 673 q 5 688 0 681 q 22 694 12 694 l 195 694 q 210 688 203 694 q 217 673 217 681 l 217 499 q 210 483 217 490 q 195 477 203 477 l 22 477 m 22 0 q 5 5 12 0 q 0 22 0 12 l 0 43 l 326 694 l 412 694 q 427 688 420 694 q 434 673 434 681 l 434 651 l 109 0 l 22 0 z "},"&":{"ha":776,"x_min":0,"x_max":651,"o":"m 239 260 q 254 266 247 260 q 260 282 260 273 l 260 412 q 254 427 260 420 q 239 434 247 434 l 195 434 q 179 427 186 434 q 174 412 174 420 l 174 282 q 179 266 174 273 q 195 260 186 260 l 239 260 m 22 0 q 5 5 12 0 q 0 22 0 12 l 0 499 q 5 514 0 507 q 22 521 12 521 l 369 521 q 384 526 377 521 q 391 543 391 533 l 391 586 q 396 601 391 594 q 412 608 403 608 l 543 608 q 557 601 551 608 q 564 586 564 594 l 564 543 q 570 526 564 533 q 586 521 576 521 l 629 521 q 644 514 637 521 q 651 499 651 507 l 651 456 q 644 439 651 446 q 629 434 637 434 l 586 434 q 570 427 576 434 q 564 412 564 420 l 564 22 q 557 5 564 12 q 543 0 551 0 l 412 0 q 396 5 403 0 q 391 22 391 12 l 391 434 l 369 434 q 353 427 359 434 q 347 412 347 420 l 347 195 q 340 179 347 186 q 326 174 334 174 l 195 174 q 179 167 186 174 q 174 152 174 160 l 174 109 q 179 92 174 99 q 195 87 186 87 l 326 87 q 340 80 334 87 q 347 65 347 73 l 347 22 q 340 5 347 12 q 326 0 334 0 l 22 0 z "},"'":{"ha":298,"x_min":0,"x_max":174,"o":"m 22 434 q 5 439 12 434 q 0 456 0 446 l 0 673 q 5 688 0 681 q 22 694 12 694 l 152 694 q 167 688 160 694 q 174 673 174 681 l 174 456 q 167 439 174 446 q 152 434 160 434 l 22 434 z "},"(":{"ha":472,"x_min":0,"x_max":347,"o":"m 22 0 q 5 5 12 0 q 0 22 0 12 l 0 673 q 5 688 0 681 q 22 694 12 694 l 326 694 q 340 688 334 694 q 347 673 347 681 l 347 499 q 340 483 347 490 q 326 477 334 477 l 260 477 l 260 217 l 326 217 q 340 210 334 217 q 347 195 347 203 l 347 22 q 340 5 347 12 q 326 0 334 0 l 22 0 z "},")":{"ha":472,"x_min":0,"x_max":347,"o":"m 22 0 q 5 5 12 0 q 0 22 0 12 l 0 195 q 5 210 0 203 q 22 217 12 217 l 87 217 l 87 477 l 22 477 q 5 483 12 477 q 0 499 0 490 l 0 673 q 5 688 0 681 q 22 694 12 694 l 326 694 q 340 688 334 694 q 347 673 347 681 l 347 22 q 340 5 347 12 q 326 0 334 0 l 22 0 z "},"*":{"ha":472,"x_min":0,"x_max":347,"o":"m 22 347 q 5 353 12 347 q 0 369 0 359 l 0 434 l 87 521 l 0 608 l 0 673 q 5 688 0 681 q 22 694 12 694 l 87 694 l 130 651 l 130 673 q 136 688 130 681 q 152 694 142 694 l 195 694 q 210 688 203 694 q 217 673 217 681 l 217 651 l 260 694 l 326 694 q 340 688 334 694 q 347 673 347 681 l 347 608 l 260 521 l 347 434 l 347 369 q 340 353 347 359 q 326 347 334 347 l 260 347 l 217 391 l 217 369 q 210 353 217 359 q 195 347 203 347 l 152 347 q 136 353 142 347 q 130 369 130 359 l 130 391 l 87 347 l 22 347 z "},"+":{"ha":559,"x_min":0,"x_max":434,"o":"m 152 130 q 136 136 142 130 q 130 152 130 142 l 130 260 l 22 260 q 5 266 12 260 q 0 282 0 273 l 0 412 q 5 427 0 420 q 22 434 12 434 l 130 434 l 130 543 q 136 557 130 551 q 152 564 142 564 l 282 564 q 297 557 290 564 q 304 543 304 551 l 304 434 l 412 434 q 427 427 420 434 q 434 412 434 420 l 434 282 q 427 266 434 273 q 412 260 420 260 l 304 260 l 304 152 q 297 136 304 142 q 282 130 290 130 l 152 130 z "},",":{"ha":298,"x_min":0,"x_max":174,"o":"m 109 -87 q 92 -80 99 -87 q 87 -65 87 -73 l 87 -22 q 80 -5 87 -12 q 65 0 73 0 l 22 0 q 5 5 12 0 q 0 22 0 12 l 0 152 q 5 167 0 160 q 22 174 12 174 l 152 174 q 167 167 160 174 q 174 152 174 160 l 174 -65 q 167 -80 174 -73 q 152 -87 160 -87 l 109 -87 z "},"-":{"ha":559,"x_min":0,"x_max":434,"o":"m 22 260 q 5 266 12 260 q 0 282 0 273 l 0 412 q 5 427 0 420 q 22 434 12 434 l 412 434 q 427 427 420 434 q 434 412 434 420 l 434 282 q 427 266 434 273 q 412 260 420 260 l 22 260 z "},".":{"ha":298,"x_min":0,"x_max":174,"o":"m 22 0 q 5 5 12 0 q 0 22 0 12 l 0 152 q 5 167 0 160 q 22 174 12 174 l 152 174 q 167 167 160 174 q 174 152 174 160 l 174 22 q 167 5 174 12 q 152 0 160 0 l 22 0 z "},"/":{"ha":646,"x_min":0,"x_max":521,"o":"m 22 0 q 5 5 12 0 q 0 22 0 12 l 0 43 l 326 694 l 499 694 q 514 688 507 694 q 521 673 521 681 l 521 651 l 195 0 l 22 0 z "},":":{"ha":298,"x_min":0,"x_max":174,"o":"m 22 0 q 5 5 12 0 q 0 22 0 12 l 0 152 q 5 167 0 160 q 22 174 12 174 l 152 174 q 167 167 160 174 q 174 152 174 160 l 174 22 q 167 5 174 12 q 152 0 160 0 l 22 0 m 22 260 q 5 266 12 260 q 0 282 0 273 l 0 412 q 5 427 0 420 q 22 434 12 434 l 152 434 q 167 427 160 434 q 174 412 174 420 l 174 282 q 167 266 174 273 q 152 260 160 260 l 22 260 z "},";":{"ha":298,"x_min":0,"x_max":174,"o":"m 109 -87 q 92 -80 99 -87 q 87 -65 87 -73 l 87 -22 q 80 -5 87 -12 q 65 0 73 0 l 22 0 q 5 5 12 0 q 0 22 0 12 l 0 152 q 5 167 0 160 q 22 174 12 174 l 152 174 q 167 167 160 174 q 174 152 174 160 l 174 -65 q 167 -80 174 -73 q 152 -87 160 -87 l 109 -87 m 22 260 q 5 266 12 260 q 0 282 0 273 l 0 412 q 5 427 0 420 q 22 434 12 434 l 152 434 q 167 427 160 434 q 174 412 174 420 l 174 282 q 167 266 174 273 q 152 260 160 260 l 22 260 z "},"<":{"ha":515,"x_min":0,"x_max":391,"o":"m 347 0 l 0 347 l 347 694 l 369 694 q 384 688 377 694 q 391 673 391 681 l 391 521 l 217 347 l 391 174 l 391 22 q 384 5 391 12 q 369 0 377 0 l 347 0 z "},"=":{"ha":559,"x_min":0,"x_max":434,"o":"m 22 130 q 5 136 12 130 q 0 152 0 142 l 0 282 q 5 297 0 290 q 22 304 12 304 l 412 304 q 427 297 420 304 q 434 282 434 290 l 434 152 q 427 136 434 142 q 412 130 420 130 l 22 130 m 22 391 q 5 396 12 391 q 0 412 0 403 l 0 543 q 5 557 0 551 q 22 564 12 564 l 412 564 q 427 557 420 564 q 434 543 434 551 l 434 412 q 427 396 434 403 q 412 391 420 391 l 22 391 z "},">":{"ha":515,"x_min":0,"x_max":391,"o":"m 22 0 q 5 5 12 0 q 0 22 0 12 l 0 174 l 174 347 l 0 521 l 0 673 q 5 688 0 681 q 22 694 12 694 l 43 694 l 391 347 l 43 0 l 22 0 z "},"?":{"ha":602,"x_min":0,"x_max":477,"o":"m 195 0 q 179 5 186 0 q 174 22 174 12 l 174 152 q 179 167 174 160 q 195 174 186 174 l 326 174 q 340 167 334 174 q 347 152 347 160 l 347 22 q 340 5 347 12 q 326 0 334 0 l 195 0 m 195 260 q 179 266 186 260 q 174 282 174 273 l 174 347 l 260 521 l 260 543 q 254 557 260 551 q 239 564 247 564 l 152 564 q 136 557 142 564 q 130 543 130 551 l 130 499 q 123 483 130 490 q 109 477 117 477 l 22 477 q 5 483 12 477 q 0 499 0 490 l 0 673 q 5 688 0 681 q 22 694 12 694 l 456 694 q 471 688 464 694 q 477 673 477 681 l 477 608 l 347 347 l 347 282 q 340 266 347 273 q 326 260 334 260 l 195 260 z "},"@":{"ha":732,"x_min":0,"x_max":608,"o":"m 326 260 q 340 266 334 260 q 347 282 347 273 l 347 412 q 340 427 347 420 q 326 434 334 434 l 282 434 q 266 427 273 434 q 260 412 260 420 l 260 282 q 266 266 260 273 q 282 260 273 260 l 326 260 m 22 0 q 5 5 12 0 q 0 22 0 12 l 0 673 q 5 688 0 681 q 22 694 12 694 l 586 694 q 601 688 594 694 q 608 673 608 681 l 608 152 q 601 136 608 142 q 586 130 594 130 l 152 130 q 136 136 142 130 q 130 152 130 142 l 130 543 q 136 557 130 551 q 152 564 142 564 l 456 564 q 471 557 464 564 q 477 543 477 551 l 477 217 l 499 217 q 514 222 507 217 q 521 239 521 229 l 521 586 q 514 601 521 594 q 499 608 507 608 l 109 608 q 92 601 99 608 q 87 586 87 594 l 87 109 q 92 92 87 99 q 109 87 99 87 l 282 87 q 297 80 290 87 q 304 65 304 73 l 304 22 q 297 5 304 12 q 282 0 290 0 l 22 0 z "},"A":{"ha":559,"x_min":0,"x_max":434,"o":"m 239 260 q 254 266 247 260 q 260 282 260 273 l 260 586 q 254 601 260 594 q 239 608 247 608 l 195 608 q 179 601 186 608 q 174 586 174 594 l 174 282 q 179 266 174 273 q 195 260 186 260 l 239 260 m 22 0 q 5 5 12 0 q 0 22 0 12 l 0 673 q 5 688 0 681 q 22 694 12 694 l 412 694 q 427 688 420 694 q 434 673 434 681 l 434 22 q 427 5 434 12 q 412 0 420 0 l 282 0 q 266 5 273 0 q 260 22 260 12 l 260 152 q 254 167 260 160 q 239 174 247 174 l 195 174 q 179 167 186 174 q 174 152 174 160 l 174 22 q 167 5 174 12 q 152 0 160 0 l 22 0 z "},"B":{"ha":559,"x_min":0,"x_max":434,"o":"m 326 43 q 340 49 334 43 q 347 65 347 56 l 347 109 q 340 123 347 117 q 326 130 334 130 l 282 130 q 266 123 273 130 q 260 109 260 117 l 260 65 q 266 49 260 56 q 282 43 273 43 l 326 43 m 326 347 q 340 353 334 347 q 347 369 347 359 l 347 586 q 340 601 347 594 q 326 608 334 608 l 282 608 q 266 601 273 608 q 260 586 260 594 l 260 369 q 266 353 260 359 q 282 347 273 347 l 326 347 m 22 0 q 5 5 12 0 q 0 22 0 12 l 0 673 q 5 688 0 681 q 22 694 12 694 l 412 694 q 427 688 420 694 q 434 673 434 681 l 434 282 q 427 266 434 273 q 412 260 420 260 l 282 260 q 266 254 273 260 q 260 239 260 247 l 260 195 q 266 179 260 186 q 282 174 273 174 l 412 174 q 427 167 420 174 q 434 152 434 160 l 434 22 q 427 5 434 12 q 412 0 420 0 l 22 0 z "},"C":{"ha":559,"x_min":0,"x_max":434,"o":"m 22 0 q 5 5 12 0 q 0 22 0 12 l 0 673 q 5 688 0 681 q 22 694 12 694 l 412 694 q 427 688 420 694 q 434 673 434 681 l 434 282 q 427 266 434 273 q 412 260 420 260 l 282 260 q 266 254 273 260 q 260 239 260 247 l 260 195 q 266 179 260 186 q 282 174 273 174 l 412 174 q 427 167 420 174 q 434 152 434 160 l 434 22 q 427 5 434 12 q 412 0 420 0 l 22 0 z "},"D":{"ha":559,"x_min":0,"x_max":434,"o":"m 326 87 q 340 92 334 87 q 347 109 347 99 l 347 586 q 340 601 347 594 q 326 608 334 608 l 282 608 q 266 601 273 608 q 260 586 260 594 l 260 109 q 266 92 260 99 q 282 87 273 87 l 326 87 m 0 0 l 0 694 l 412 694 q 427 688 420 694 q 434 673 434 681 l 434 22 q 427 5 434 12 q 412 0 420 0 l 0 0 z "},"E":{"ha":559,"x_min":0,"x_max":434,"o":"m 22 0 q 5 5 12 0 q 0 22 0 12 l 0 673 q 5 688 0 681 q 22 694 12 694 l 412 694 q 427 688 420 694 q 434 673 434 681 l 434 369 q 427 353 434 359 q 412 347 420 347 l 282 347 q 266 340 273 347 q 260 326 260 334 l 260 282 q 266 266 260 273 q 282 260 273 260 l 412 260 q 427 254 420 260 q 434 239 434 247 l 434 195 q 427 179 434 186 q 412 174 420 174 l 282 174 q 266 167 273 174 q 260 152 260 160 l 260 109 q 266 92 260 99 q 282 87 273 87 l 412 87 q 427 80 420 87 q 434 65 434 73 l 434 22 q 427 5 434 12 q 412 0 420 0 l 22 0 z "},"F":{"ha":559,"x_min":0,"x_max":434,"o":"m 22 0 q 5 5 12 0 q 0 22 0 12 l 0 673 q 5 688 0 681 q 22 694 12 694 l 412 694 q 427 688 420 694 q 434 673 434 681 l 434 369 q 427 353 434 359 q 412 347 420 347 l 282 347 q 266 340 273 347 q 260 326 260 334 l 260 282 q 266 266 260 273 q 282 260 273 260 l 412 260 q 427 254 420 260 q 434 239 434 247 l 434 195 q 427 179 434 186 q 412 174 420 174 l 282 174 q 266 167 273 174 q 260 152 260 160 l 260 22 q 254 5 260 12 q 239 0 247 0 l 22 0 z "},"G":{"ha":559,"x_min":0,"x_max":434,"o":"m 22 0 q 5 5 12 0 q 0 22 0 12 l 0 673 q 5 688 0 681 q 22 694 12 694 l 412 694 q 427 688 420 694 q 434 673 434 681 l 434 282 q 427 266 434 273 q 412 260 420 260 l 282 260 q 266 254 273 260 q 260 239 260 247 l 260 109 q 266 92 260 99 q 282 87 273 87 l 326 87 q 340 92 334 87 q 347 109 347 99 l 347 152 q 353 167 347 160 q 369 174 359 174 l 412 174 q 427 167 420 174 q 434 152 434 160 l 434 0 l 22 0 z "},"H":{"ha":559,"x_min":0,"x_max":434,"o":"m 22 0 q 5 5 12 0 q 0 22 0 12 l 0 673 q 5 688 0 681 q 22 694 12 694 l 152 694 q 167 688 160 694 q 174 673 174 681 l 174 369 q 179 353 174 359 q 195 347 186 347 l 239 347 q 254 353 247 347 q 260 369 260 359 l 260 673 q 266 688 260 681 q 282 694 273 694 l 412 694 q 427 688 420 694 q 434 673 434 681 l 434 22 q 427 5 434 12 q 412 0 420 0 l 282 0 q 266 5 273 0 q 260 22 260 12 l 260 152 q 254 167 260 160 q 239 174 247 174 l 195 174 q 179 167 186 174 q 174 152 174 160 l 174 22 q 167 5 174 12 q 152 0 160 0 l 22 0 z "},"I":{"ha":298,"x_min":0,"x_max":174,"o":"m 22 0 q 5 5 12 0 q 0 22 0 12 l 0 673 q 5 688 0 681 q 22 694 12 694 l 152 694 q 167 688 160 694 q 174 673 174 681 l 174 22 q 167 5 174 12 q 152 0 160 0 l 22 0 z "},"J":{"ha":559,"x_min":0,"x_max":434,"o":"m 22 0 q 5 5 12 0 q 0 22 0 12 l 0 152 q 5 167 0 160 q 22 174 12 174 l 65 174 q 80 167 73 174 q 87 152 87 160 l 87 109 q 92 92 87 99 q 109 87 99 87 l 152 87 q 167 92 160 87 q 174 109 174 99 l 174 673 q 179 688 174 681 q 195 694 186 694 l 412 694 q 427 688 420 694 q 434 673 434 681 l 434 22 q 427 5 434 12 q 412 0 420 0 l 22 0 z "},"K":{"ha":559,"x_min":0,"x_max":434,"o":"m 22 0 q 5 5 12 0 q 0 22 0 12 l 0 673 q 5 688 0 681 q 22 694 12 694 l 239 694 q 254 688 247 694 q 260 673 260 681 l 260 608 l 347 694 l 412 694 q 427 688 420 694 q 434 673 434 681 l 434 477 l 304 347 l 434 217 l 434 22 q 427 5 434 12 q 412 0 420 0 l 347 0 l 260 87 l 260 22 q 254 5 260 12 q 239 0 247 0 l 22 0 z "},"L":{"ha":559,"x_min":0,"x_max":434,"o":"m 22 0 q 5 5 12 0 q 0 22 0 12 l 0 673 q 5 688 0 681 q 22 694 12 694 l 239 694 q 254 688 247 694 q 260 673 260 681 l 260 195 q 266 179 260 186 q 282 174 273 174 l 412 174 q 427 167 420 174 q 434 152 434 160 l 434 22 q 427 5 434 12 q 412 0 420 0 l 22 0 z "},"M":{"ha":646,"x_min":0,"x_max":521,"o":"m 22 0 q 5 5 12 0 q 0 22 0 12 l 0 673 q 5 688 0 681 q 22 694 12 694 l 174 694 l 260 608 l 347 694 l 499 694 q 514 688 507 694 q 521 673 521 681 l 521 22 q 514 5 521 12 q 499 0 507 0 l 369 0 q 353 5 359 0 q 347 22 347 12 l 347 130 l 260 43 l 174 130 l 174 22 q 167 5 174 12 q 152 0 160 0 l 22 0 z "},"N":{"ha":559,"x_min":0,"x_max":434,"o":"m 22 0 q 5 5 12 0 q 0 22 0 12 l 0 673 q 5 688 0 681 q 22 694 12 694 l 174 694 l 260 521 l 260 673 q 266 688 260 681 q 282 694 273 694 l 412 694 q 427 688 420 694 q 434 673 434 681 l 434 22 q 427 5 434 12 q 412 0 420 0 l 260 0 l 174 174 l 174 22 q 167 5 174 12 q 152 0 160 0 l 22 0 z "},"O":{"ha":559,"x_min":0,"x_max":434,"o":"m 326 87 q 340 92 334 87 q 347 109 347 99 l 347 586 q 340 601 347 594 q 326 608 334 608 l 282 608 q 266 601 273 608 q 260 586 260 594 l 260 109 q 266 92 260 99 q 282 87 273 87 l 326 87 m 22 0 q 5 5 12 0 q 0 22 0 12 l 0 673 q 5 688 0 681 q 22 694 12 694 l 412 694 q 427 688 420 694 q 434 673 434 681 l 434 22 q 427 5 434 12 q 412 0 420 0 l 22 0 z "},"P":{"ha":559,"x_min":0,"x_max":434,"o":"m 326 260 q 340 266 334 260 q 347 282 347 273 l 347 586 q 340 601 347 594 q 326 608 334 608 l 282 608 q 266 601 273 608 q 260 586 260 594 l 260 282 q 266 266 260 273 q 282 260 273 260 l 326 260 m 22 0 q 5 5 12 0 q 0 22 0 12 l 0 673 q 5 688 0 681 q 22 694 12 694 l 412 694 q 427 688 420 694 q 434 673 434 681 l 434 195 q 427 179 434 186 q 412 174 420 174 l 282 174 q 266 167 273 174 q 260 152 260 160 l 260 22 q 254 5 260 12 q 239 0 247 0 l 22 0 z "},"Q":{"ha":646,"x_min":0,"x_max":521,"o":"m 326 87 q 340 92 334 87 q 347 109 347 99 l 347 586 q 340 601 347 594 q 326 608 334 608 l 282 608 q 266 601 273 608 q 260 586 260 594 l 260 109 q 266 92 260 99 q 282 87 273 87 l 326 87 m 22 0 q 5 5 12 0 q 0 22 0 12 l 0 673 q 5 688 0 681 q 22 694 12 694 l 412 694 q 427 688 420 694 q 434 673 434 681 l 434 109 q 439 92 434 99 q 456 87 446 87 l 499 87 q 514 80 507 87 q 521 65 521 73 l 521 22 q 514 5 521 12 q 499 0 507 0 l 22 0 z "},"R":{"ha":559,"x_min":0,"x_max":434,"o":"m 326 260 q 340 266 334 260 q 347 282 347 273 l 347 586 q 340 601 347 594 q 326 608 334 608 l 282 608 q 266 601 273 608 q 260 586 260 594 l 260 282 q 266 266 260 273 q 282 260 273 260 l 326 260 m 22 0 q 5 5 12 0 q 0 22 0 12 l 0 673 q 5 688 0 681 q 22 694 12 694 l 412 694 q 427 688 420 694 q 434 673 434 681 l 434 195 q 427 179 434 186 q 412 174 420 174 l 347 174 l 434 87 l 434 22 q 427 5 434 12 q 412 0 420 0 l 347 0 l 260 87 l 260 22 q 254 5 260 12 q 239 0 247 0 l 22 0 z "},"S":{"ha":559,"x_min":0,"x_max":434,"o":"m 22 0 q 5 5 12 0 q 0 22 0 12 l 0 152 q 5 167 0 160 q 22 174 12 174 l 152 174 q 167 179 160 174 q 174 195 174 186 l 174 326 q 167 340 174 334 q 152 347 160 347 l 22 347 q 5 353 12 347 q 0 369 0 359 l 0 673 q 5 688 0 681 q 22 694 12 694 l 412 694 q 427 688 420 694 q 434 673 434 681 l 434 543 q 427 526 434 533 q 412 521 420 521 l 282 521 q 266 514 273 521 q 260 499 260 507 l 260 456 q 266 439 260 446 q 282 434 273 434 l 412 434 q 427 427 420 434 q 434 412 434 420 l 434 22 q 427 5 434 12 q 412 0 420 0 l 22 0 z "},"T":{"ha":559,"x_min":0,"x_max":434,"o":"m 109 0 q 92 5 99 0 q 87 22 87 12 l 87 326 q 80 340 87 334 q 65 347 73 347 l 22 347 q 5 353 12 347 q 0 369 0 359 l 0 673 q 5 688 0 681 q 22 694 12 694 l 412 694 q 427 688 420 694 q 434 673 434 681 l 434 369 q 427 353 434 359 q 412 347 420 347 l 369 347 q 353 340 359 347 q 347 326 347 334 l 347 22 q 340 5 347 12 q 326 0 334 0 l 109 0 z "},"U":{"ha":559,"x_min":0,"x_max":434,"o":"m 22 0 q 5 5 12 0 q 0 22 0 12 l 0 673 q 5 688 0 681 q 22 694 12 694 l 152 694 q 167 688 160 694 q 174 673 174 681 l 174 369 q 179 353 174 359 q 195 347 186 347 l 239 347 q 254 353 247 347 q 260 369 260 359 l 260 673 q 266 688 260 681 q 282 694 273 694 l 412 694 q 427 688 420 694 q 434 673 434 681 l 434 22 q 427 5 434 12 q 412 0 420 0 l 22 0 z "},"V":{"ha":559,"x_min":0,"x_max":434,"o":"m 130 0 l 0 260 l 0 673 q 5 688 0 681 q 22 694 12 694 l 152 694 q 167 688 160 694 q 174 673 174 681 l 174 434 l 217 347 l 260 434 l 260 673 q 266 688 260 681 q 282 694 273 694 l 412 694 q 427 688 420 694 q 434 673 434 681 l 434 260 l 304 0 l 130 0 z "},"W":{"ha":819,"x_min":0,"x_max":694,"o":"m 130 0 l 0 260 l 0 673 q 5 688 0 681 q 22 694 12 694 l 152 694 q 167 688 160 694 q 174 673 174 681 l 174 434 l 217 347 l 260 434 l 260 673 q 266 688 260 681 q 282 694 273 694 l 412 694 q 427 688 420 694 q 434 673 434 681 l 434 434 l 477 347 l 521 434 l 521 673 q 526 688 521 681 q 543 694 533 694 l 673 694 q 688 688 681 694 q 694 673 694 681 l 694 260 l 564 0 l 391 0 l 347 87 l 304 0 l 130 0 z "},"X":{"ha":559,"x_min":0,"x_max":434,"o":"m 22 0 q 5 5 12 0 q 0 22 0 12 l 0 217 l 130 347 l 0 477 l 0 673 q 5 688 0 681 q 22 694 12 694 l 174 694 l 217 608 l 260 694 l 412 694 q 427 688 420 694 q 434 673 434 681 l 434 477 l 304 347 l 434 217 l 434 22 q 427 5 434 12 q 412 0 420 0 l 260 0 l 217 87 l 174 0 l 22 0 z "},"Y":{"ha":559,"x_min":0,"x_max":434,"o":"m 109 0 q 92 5 99 0 q 87 22 87 12 l 87 347 l 0 521 l 0 673 q 5 688 0 681 q 22 694 12 694 l 152 694 q 167 688 160 694 q 174 673 174 681 l 174 521 l 217 434 l 260 521 l 260 673 q 266 688 260 681 q 282 694 273 694 l 412 694 q 427 688 420 694 q 434 673 434 681 l 434 521 l 347 347 l 347 22 q 340 5 347 12 q 326 0 334 0 l 109 0 z "},"Z":{"ha":646,"x_min":0,"x_max":521,"o":"m 22 0 q 5 5 12 0 q 0 22 0 12 l 0 174 l 174 521 l 22 521 q 5 526 12 521 q 0 543 0 533 l 0 673 q 5 688 0 681 q 22 694 12 694 l 499 694 q 514 688 507 694 q 521 673 521 681 l 521 521 l 347 174 l 499 174 q 514 167 507 174 q 521 152 521 160 l 521 22 q 514 5 521 12 q 499 0 507 0 l 22 0 z "},"[":{"ha":385,"x_min":0,"x_max":260,"o":"m 22 0 q 5 5 12 0 q 0 22 0 12 l 0 673 q 5 688 0 681 q 22 694 12 694 l 239 694 q 254 688 247 694 q 260 673 260 681 l 260 543 q 254 526 260 533 q 239 521 247 521 l 195 521 q 179 514 186 521 q 174 499 174 507 l 174 174 l 239 174 q 254 167 247 174 q 260 152 260 160 l 260 22 q 254 5 260 12 q 239 0 247 0 l 22 0 z "},"\\":{"ha":646,"x_min":0,"x_max":521,"o":"m 326 0 l 0 651 l 0 673 q 5 688 0 681 q 22 694 12 694 l 195 694 l 521 43 l 521 22 q 514 5 521 12 q 499 0 507 0 l 326 0 z "},"]":{"ha":385,"x_min":0,"x_max":260,"o":"m 22 0 q 5 5 12 0 q 0 22 0 12 l 0 152 q 5 167 0 160 q 22 174 12 174 l 87 174 l 87 499 q 80 514 87 507 q 65 521 73 521 l 22 521 q 5 526 12 521 q 0 543 0 533 l 0 673 q 5 688 0 681 q 22 694 12 694 l 239 694 q 254 688 247 694 q 260 673 260 681 l 260 22 q 254 5 260 12 q 239 0 247 0 l 22 0 z "},"^":{"ha":559,"x_min":0,"x_max":434,"o":"m 22 564 q 5 570 12 564 q 0 586 0 576 l 0 608 l 130 738 l 304 738 l 434 608 l 434 586 q 427 570 434 576 q 412 564 420 564 l 304 564 l 217 651 l 130 564 l 22 564 z "},"_":{"ha":559,"x_min":0,"x_max":434,"o":"m 22 0 q 5 5 12 0 q 0 22 0 12 l 0 152 q 5 167 0 160 q 22 174 12 174 l 412 174 q 427 167 420 174 q 434 152 434 160 l 434 22 q 427 5 434 12 q 412 0 420 0 l 22 0 z "},"`":{"ha":515,"x_min":174,"x_max":391,"o":"m 195 564 q 179 570 186 564 q 174 586 174 576 l 174 651 l 304 781 l 369 781 q 384 774 377 781 q 391 760 391 768 l 391 694 l 260 564 l 195 564 z "},"a":{"ha":559,"x_min":0,"x_max":434,"o":"m 152 87 q 167 92 160 87 q 174 109 174 99 l 174 152 q 167 167 174 160 q 152 174 160 174 l 109 174 q 92 167 99 174 q 87 152 87 160 l 87 109 q 92 92 87 99 q 109 87 99 87 l 152 87 m 22 0 q 5 5 12 0 q 0 22 0 12 l 0 239 q 5 254 0 247 q 22 260 12 260 l 152 260 q 167 266 160 260 q 174 282 174 273 l 174 412 q 167 427 174 420 q 152 434 160 434 l 22 434 q 5 439 12 434 q 0 456 0 446 l 0 499 q 5 514 0 507 q 22 521 12 521 l 412 521 q 427 514 420 521 q 434 499 434 507 l 434 22 q 427 5 434 12 q 412 0 420 0 l 22 0 z "},"b":{"ha":559,"x_min":0,"x_max":434,"o":"m 326 87 q 340 92 334 87 q 347 109 347 99 l 347 412 q 340 427 347 420 q 326 434 334 434 l 282 434 q 266 427 273 434 q 260 412 260 420 l 260 109 q 266 92 260 99 q 282 87 273 87 l 326 87 m 22 0 q 5 5 12 0 q 0 22 0 12 l 0 760 q 5 774 0 768 q 22 781 12 781 l 239 781 q 254 774 247 781 q 260 760 260 768 l 260 543 q 266 526 260 533 q 282 521 273 521 l 412 521 q 427 514 420 521 q 434 499 434 507 l 434 22 q 427 5 434 12 q 412 0 420 0 l 22 0 z "},"c":{"ha":559,"x_min":0,"x_max":434,"o":"m 22 0 q 5 5 12 0 q 0 22 0 12 l 0 499 q 5 514 0 507 q 22 521 12 521 l 412 521 q 427 514 420 521 q 434 499 434 507 l 434 282 q 427 266 434 273 q 412 260 420 260 l 282 260 q 266 254 273 260 q 260 239 260 247 l 260 109 q 266 92 260 99 q 282 87 273 87 l 412 87 q 427 80 420 87 q 434 65 434 73 l 434 22 q 427 5 434 12 q 412 0 420 0 l 22 0 z "},"d":{"ha":559,"x_min":0,"x_max":434,"o":"m 152 87 q 167 92 160 87 q 174 109 174 99 l 174 412 q 167 427 174 420 q 152 434 160 434 l 109 434 q 92 427 99 434 q 87 412 87 420 l 87 109 q 92 92 87 99 q 109 87 99 87 l 152 87 m 22 0 q 5 5 12 0 q 0 22 0 12 l 0 499 q 5 514 0 507 q 22 521 12 521 l 152 521 q 167 526 160 521 q 174 543 174 533 l 174 760 q 179 774 174 768 q 195 781 186 781 l 412 781 q 427 774 420 781 q 434 760 434 768 l 434 22 q 427 5 434 12 q 412 0 420 0 l 22 0 z "},"e":{"ha":559,"x_min":0,"x_max":434,"o":"m 326 260 q 340 266 334 260 q 347 282 347 273 l 347 412 q 340 427 347 420 q 326 434 334 434 l 282 434 q 266 427 273 434 q 260 412 260 420 l 260 282 q 266 266 260 273 q 282 260 273 260 l 326 260 m 22 0 q 5 5 12 0 q 0 22 0 12 l 0 499 q 5 514 0 507 q 22 521 12 521 l 412 521 q 427 514 420 521 q 434 499 434 507 l 434 195 q 427 179 434 186 q 412 174 420 174 l 282 174 q 266 167 273 174 q 260 152 260 160 l 260 109 q 266 92 260 99 q 282 87 273 87 l 412 87 q 427 80 420 87 q 434 65 434 73 l 434 22 q 427 5 434 12 q 412 0 420 0 l 22 0 z "},"f":{"ha":559,"x_min":0,"x_max":434,"o":"m 109 -260 q 92 -254 99 -260 q 87 -239 87 -247 l 87 326 q 80 340 87 334 q 65 347 73 347 l 22 347 q 5 353 12 347 q 0 369 0 359 l 0 412 q 5 427 0 420 q 22 434 12 434 l 65 434 q 80 439 73 434 q 87 456 87 446 l 87 760 q 92 774 87 768 q 109 781 99 781 l 412 781 q 427 774 420 781 q 434 760 434 768 l 434 629 q 427 613 434 620 q 412 608 420 608 l 369 608 q 353 601 359 608 q 347 586 347 594 l 347 456 q 353 439 347 446 q 369 434 359 434 l 412 434 q 427 427 420 434 q 434 412 434 420 l 434 369 q 427 353 434 359 q 412 347 420 347 l 369 347 q 353 340 359 347 q 347 326 347 334 l 347 -239 q 340 -254 347 -247 q 326 -260 334 -260 l 109 -260 z "},"g":{"ha":559,"x_min":0,"x_max":434,"o":"m 152 87 q 167 92 160 87 q 174 109 174 99 l 174 412 q 167 427 174 420 q 152 434 160 434 l 109 434 q 92 427 99 434 q 87 412 87 420 l 87 109 q 92 92 87 99 q 109 87 99 87 l 152 87 m 22 -260 q 5 -254 12 -260 q 0 -239 0 -247 l 0 -109 q 5 -92 0 -99 q 22 -87 12 -87 l 152 -87 q 167 -80 160 -87 q 174 -65 174 -73 l 174 -22 q 167 -5 174 -12 q 152 0 160 0 l 22 0 q 5 5 12 0 q 0 22 0 12 l 0 499 q 5 514 0 507 q 22 521 12 521 l 412 521 q 427 514 420 521 q 434 499 434 507 l 434 -239 q 427 -254 434 -247 q 412 -260 420 -260 l 22 -260 z "},"h":{"ha":559,"x_min":0,"x_max":434,"o":"m 22 0 q 5 5 12 0 q 0 22 0 12 l 0 760 q 5 774 0 768 q 22 781 12 781 l 152 781 q 167 774 160 781 q 174 760 174 768 l 174 543 q 179 526 174 533 q 195 521 186 521 l 412 521 q 427 514 420 521 q 434 499 434 507 l 434 22 q 427 5 434 12 q 412 0 420 0 l 282 0 q 266 5 273 0 q 260 22 260 12 l 260 152 q 254 167 260 160 q 239 174 247 174 l 195 174 q 179 167 186 174 q 174 152 174 160 l 174 22 q 167 5 174 12 q 152 0 160 0 l 22 0 z "},"i":{"ha":385,"x_min":0,"x_max":260,"o":"m 22 0 q 5 5 12 0 q 0 22 0 12 l 0 499 q 5 514 0 507 q 22 521 12 521 l 239 521 q 254 514 247 521 q 260 499 260 507 l 260 22 q 254 5 260 12 q 239 0 247 0 l 22 0 m 22 608 q 5 613 12 608 q 0 629 0 620 l 0 760 q 5 774 0 768 q 22 781 12 781 l 239 781 q 254 774 247 781 q 260 760 260 768 l 260 629 q 254 613 260 620 q 239 608 247 608 l 22 608 z "},"j":{"ha":472,"x_min":0,"x_max":347,"o":"m 22 -260 q 5 -254 12 -260 q 0 -239 0 -247 l 0 -22 q 5 -5 0 -12 q 22 0 12 0 l 65 0 q 80 5 73 0 q 87 22 87 12 l 87 499 q 92 514 87 507 q 109 521 99 521 l 326 521 q 340 514 334 521 q 347 499 347 507 l 347 -239 q 340 -254 347 -247 q 326 -260 334 -260 l 22 -260 m 109 608 q 92 613 99 608 q 87 629 87 620 l 87 760 q 92 774 87 768 q 109 781 99 781 l 326 781 q 340 774 334 781 q 347 760 347 768 l 347 629 q 340 613 347 620 q 326 608 334 608 l 109 608 z "},"k":{"ha":559,"x_min":0,"x_max":434,"o":"m 22 0 q 5 5 12 0 q 0 22 0 12 l 0 760 q 5 774 0 768 q 22 781 12 781 l 239 781 q 254 774 247 781 q 260 760 260 768 l 260 434 l 347 521 l 412 521 q 427 514 420 521 q 434 499 434 507 l 434 347 l 347 260 l 434 174 l 434 22 q 427 5 434 12 q 412 0 420 0 l 347 0 l 260 87 l 260 22 q 254 5 260 12 q 239 0 247 0 l 22 0 z "},"l":{"ha":472,"x_min":0,"x_max":347,"o":"m 22 0 q 5 5 12 0 q 0 22 0 12 l 0 760 q 5 774 0 768 q 22 781 12 781 l 239 781 q 254 774 247 781 q 260 760 260 768 l 260 195 q 266 179 260 186 q 282 174 273 174 l 326 174 q 340 167 334 174 q 347 152 347 160 l 347 22 q 340 5 347 12 q 326 0 334 0 l 22 0 z "},"m":{"ha":732,"x_min":0,"x_max":608,"o":"m 22 0 q 5 5 12 0 q 0 22 0 12 l 0 499 q 5 514 0 507 q 22 521 12 521 l 65 521 q 80 514 73 521 q 87 499 87 507 l 87 434 l 174 521 l 326 521 q 340 514 334 521 q 347 499 347 507 l 347 434 l 434 521 l 586 521 q 601 514 594 521 q 608 499 608 507 l 608 22 q 601 5 608 12 q 586 0 594 0 l 499 0 q 483 5 490 0 q 477 22 477 12 l 477 130 l 347 0 l 239 0 q 222 5 229 0 q 217 22 217 12 l 217 130 l 87 0 l 22 0 z "},"n":{"ha":602,"x_min":0,"x_max":477,"o":"m 22 0 q 5 5 12 0 q 0 22 0 12 l 0 499 q 5 514 0 507 q 22 521 12 521 l 152 521 q 167 514 160 521 q 174 499 174 507 l 174 434 l 260 521 l 456 521 q 471 514 464 521 q 477 499 477 507 l 477 22 q 471 5 477 12 q 456 0 464 0 l 326 0 q 309 5 316 0 q 304 22 304 12 l 304 130 l 174 0 l 22 0 z "},"o":{"ha":559,"x_min":0,"x_max":434,"o":"m 326 87 q 340 92 334 87 q 347 109 347 99 l 347 412 q 340 427 347 420 q 326 434 334 434 l 282 434 q 266 427 273 434 q 260 412 260 420 l 260 109 q 266 92 260 99 q 282 87 273 87 l 326 87 m 22 0 q 5 5 12 0 q 0 22 0 12 l 0 499 q 5 514 0 507 q 22 521 12 521 l 412 521 q 427 514 420 521 q 434 499 434 507 l 434 22 q 427 5 434 12 q 412 0 420 0 l 22 0 z "},"p":{"ha":559,"x_min":0,"x_max":434,"o":"m 326 87 q 340 92 334 87 q 347 109 347 99 l 347 412 q 340 427 347 420 q 326 434 334 434 l 282 434 q 266 427 273 434 q 260 412 260 420 l 260 109 q 266 92 260 99 q 282 87 273 87 l 326 87 m 22 -260 q 5 -254 12 -260 q 0 -239 0 -247 l 0 499 q 5 514 0 507 q 22 521 12 521 l 412 521 q 427 514 420 521 q 434 499 434 507 l 434 22 q 427 5 434 12 q 412 0 420 0 l 282 0 q 266 -5 273 0 q 260 -22 260 -12 l 260 -239 q 254 -254 260 -247 q 239 -260 247 -260 l 22 -260 z "},"q":{"ha":559,"x_min":0,"x_max":434,"o":"m 152 87 q 167 92 160 87 q 174 109 174 99 l 174 412 q 167 427 174 420 q 152 434 160 434 l 109 434 q 92 427 99 434 q 87 412 87 420 l 87 109 q 92 92 87 99 q 109 87 99 87 l 152 87 m 195 -260 q 179 -254 186 -260 q 174 -239 174 -247 l 174 -22 q 167 -5 174 -12 q 152 0 160 0 l 22 0 q 5 5 12 0 q 0 22 0 12 l 0 499 q 5 514 0 507 q 22 521 12 521 l 412 521 q 427 514 420 521 q 434 499 434 507 l 434 -239 q 427 -254 434 -247 q 412 -260 420 -260 l 195 -260 z "},"r":{"ha":515,"x_min":0,"x_max":391,"o":"m 22 0 q 5 5 12 0 q 0 22 0 12 l 0 499 q 5 514 0 507 q 22 521 12 521 l 152 521 q 167 514 160 521 q 174 499 174 507 l 174 434 l 260 521 l 369 521 q 384 514 377 521 q 391 499 391 507 l 391 456 q 384 439 391 446 q 369 434 377 434 l 304 434 l 217 347 l 217 22 q 210 5 217 12 q 195 0 203 0 l 22 0 z "},"s":{"ha":559,"x_min":0,"x_max":434,"o":"m 22 0 q 5 5 12 0 q 0 22 0 12 l 0 65 q 5 80 0 73 q 22 87 12 87 l 152 87 q 167 92 160 87 q 174 109 174 99 l 174 239 q 167 254 174 247 q 152 260 160 260 l 22 260 q 5 266 12 260 q 0 282 0 273 l 0 499 q 5 514 0 507 q 22 521 12 521 l 412 521 q 427 514 420 521 q 434 499 434 507 l 434 456 q 427 439 434 446 q 412 434 420 434 l 282 434 q 266 427 273 434 q 260 412 260 420 l 260 369 q 266 353 260 359 q 282 347 273 347 l 412 347 q 427 340 420 347 q 434 326 434 334 l 434 22 q 427 5 434 12 q 412 0 420 0 l 22 0 z "},"t":{"ha":559,"x_min":0,"x_max":434,"o":"m 109 0 q 92 5 99 0 q 87 22 87 12 l 87 412 q 80 427 87 420 q 65 434 73 434 l 22 434 q 5 439 12 434 q 0 456 0 446 l 0 499 q 5 514 0 507 q 22 521 12 521 l 65 521 q 80 526 73 521 q 87 543 87 533 l 87 586 q 92 601 87 594 q 109 608 99 608 l 326 608 q 340 601 334 608 q 347 586 347 594 l 347 543 q 353 526 347 533 q 369 521 359 521 l 412 521 q 427 514 420 521 q 434 499 434 507 l 434 456 q 427 439 434 446 q 412 434 420 434 l 369 434 q 353 427 359 434 q 347 412 347 420 l 347 22 q 340 5 347 12 q 326 0 334 0 l 109 0 z "},"u":{"ha":559,"x_min":0,"x_max":434,"o":"m 22 0 q 5 5 12 0 q 0 22 0 12 l 0 499 q 5 514 0 507 q 22 521 12 521 l 152 521 q 167 514 160 521 q 174 499 174 507 l 174 239 q 179 222 174 229 q 195 217 186 217 l 239 217 q 254 222 247 217 q 260 239 260 229 l 260 499 q 266 514 260 507 q 282 521 273 521 l 412 521 q 427 514 420 521 q 434 499 434 507 l 434 22 q 427 5 434 12 q 412 0 420 0 l 22 0 z "},"v":{"ha":559,"x_min":0,"x_max":434,"o":"m 130 0 l 0 260 l 0 499 q 5 514 0 507 q 22 521 12 521 l 152 521 q 167 514 160 521 q 174 499 174 507 l 174 347 l 217 260 l 260 347 l 260 499 q 266 514 260 507 q 282 521 273 521 l 412 521 q 427 514 420 521 q 434 499 434 507 l 434 260 l 304 0 l 130 0 z "},"w":{"ha":819,"x_min":0,"x_max":694,"o":"m 130 0 l 0 260 l 0 499 q 5 514 0 507 q 22 521 12 521 l 152 521 q 167 514 160 521 q 174 499 174 507 l 174 347 l 217 260 l 260 347 l 260 499 q 266 514 260 507 q 282 521 273 521 l 412 521 q 427 514 420 521 q 434 499 434 507 l 434 347 l 477 260 l 521 347 l 521 499 q 526 514 521 507 q 543 521 533 521 l 673 521 q 688 514 681 521 q 694 499 694 507 l 694 260 l 564 0 l 391 0 l 347 87 l 304 0 l 130 0 z "},"x":{"ha":559,"x_min":0,"x_max":434,"o":"m 22 0 q 5 5 12 0 q 0 22 0 12 l 0 174 l 87 260 l 0 347 l 0 499 q 5 514 0 507 q 22 521 12 521 l 174 521 l 217 434 l 260 521 l 412 521 q 427 514 420 521 q 434 499 434 507 l 434 347 l 347 260 l 434 174 l 434 22 q 427 5 434 12 q 412 0 420 0 l 260 0 l 217 87 l 174 0 l 22 0 z "},"y":{"ha":559,"x_min":0,"x_max":434,"o":"m 22 -260 q 5 -254 12 -260 q 0 -239 0 -247 l 0 -109 q 5 -92 0 -99 q 22 -87 12 -87 l 152 -87 q 167 -80 160 -87 q 174 -65 174 -73 l 174 -22 q 167 -5 174 -12 q 152 0 160 0 l 22 0 q 5 5 12 0 q 0 22 0 12 l 0 499 q 5 514 0 507 q 22 521 12 521 l 152 521 q 167 514 160 521 q 174 499 174 507 l 174 282 q 179 266 174 273 q 195 260 186 260 l 239 260 q 254 266 247 260 q 260 282 260 273 l 260 499 q 266 514 260 507 q 282 521 273 521 l 412 521 q 427 514 420 521 q 434 499 434 507 l 434 -239 q 427 -254 434 -247 q 412 -260 420 -260 l 22 -260 z "},"z":{"ha":559,"x_min":0,"x_max":434,"o":"m 22 0 q 5 5 12 0 q 0 22 0 12 l 0 174 l 87 347 l 22 347 q 5 353 12 347 q 0 369 0 359 l 0 499 q 5 514 0 507 q 22 521 12 521 l 412 521 q 427 514 420 521 q 434 499 434 507 l 434 347 l 347 174 l 412 174 q 427 167 420 174 q 434 152 434 160 l 434 22 q 427 5 434 12 q 412 0 420 0 l 22 0 z "},"{":{"ha":515,"x_min":22,"x_max":391,"o":"m 195 0 l 22 347 l 195 694 l 369 694 q 384 688 377 694 q 391 673 391 681 l 391 543 q 384 526 391 533 q 369 521 377 521 l 326 521 l 239 347 l 326 174 l 369 174 q 384 167 377 174 q 391 152 391 160 l 391 22 q 384 5 391 12 q 369 0 377 0 l 195 0 z "},"|":{"ha":298,"x_min":0,"x_max":174,"o":"m 22 0 q 5 5 12 0 q 0 22 0 12 l 0 673 q 5 688 0 681 q 22 694 12 694 l 152 694 q 167 688 160 694 q 174 673 174 681 l 174 22 q 167 5 174 12 q 152 0 160 0 l 22 0 z "},"}":{"ha":515,"x_min":0,"x_max":369,"o":"m 22 0 q 5 5 12 0 q 0 22 0 12 l 0 152 q 5 167 0 160 q 22 174 12 174 l 65 174 l 152 347 l 65 521 l 22 521 q 5 526 12 521 q 0 543 0 533 l 0 673 q 5 688 0 681 q 22 694 12 694 l 195 694 l 369 347 l 195 0 l 22 0 z "},"~":{"ha":689,"x_min":0,"x_max":564,"o":"m 22 564 q 5 570 12 564 q 0 586 0 576 l 0 608 l 130 738 l 304 738 l 391 651 l 477 738 l 543 738 q 557 731 551 738 q 564 716 564 724 l 564 651 l 477 564 l 304 564 l 217 651 l 130 564 l 22 564 z "},"À":{"ha":559,"x_min":0,"x_max":434,"o":"m 239 260 q 254 266 247 260 q 260 282 260 273 l 260 586 q 254 601 260 594 q 239 608 247 608 l 195 608 q 179 601 186 608 q 174 586 174 594 l 174 282 q 179 266 174 273 q 195 260 186 260 l 239 260 m 22 0 q 5 5 12 0 q 0 22 0 12 l 0 673 q 5 688 0 681 q 22 694 12 694 l 412 694 q 427 688 420 694 q 434 673 434 681 l 434 22 q 427 5 434 12 q 412 0 420 0 l 282 0 q 266 5 273 0 q 260 22 260 12 l 260 152 q 254 167 260 160 q 239 174 247 174 l 195 174 q 179 167 186 174 q 174 152 174 160 l 174 22 q 167 5 174 12 q 152 0 160 0 l 22 0 m 217 738 l 87 868 l 87 933 q 92 948 87 941 q 109 955 99 955 l 174 955 l 304 825 l 304 760 q 297 743 304 750 q 282 738 290 738 l 217 738 z "},"Á":{"ha":559,"x_min":0,"x_max":434,"o":"m 239 260 q 254 266 247 260 q 260 282 260 273 l 260 586 q 254 601 260 594 q 239 608 247 608 l 195 608 q 179 601 186 608 q 174 586 174 594 l 174 282 q 179 266 174 273 q 195 260 186 260 l 239 260 m 22 0 q 5 5 12 0 q 0 22 0 12 l 0 673 q 5 688 0 681 q 22 694 12 694 l 412 694 q 427 688 420 694 q 434 673 434 681 l 434 22 q 427 5 434 12 q 412 0 420 0 l 282 0 q 266 5 273 0 q 260 22 260 12 l 260 152 q 254 167 260 160 q 239 174 247 174 l 195 174 q 179 167 186 174 q 174 152 174 160 l 174 22 q 167 5 174 12 q 152 0 160 0 l 22 0 m 152 738 q 136 743 142 738 q 130 760 130 750 l 130 825 l 260 955 l 326 955 q 340 948 334 955 q 347 933 347 941 l 347 868 l 217 738 l 152 738 z "},"Â":{"ha":559,"x_min":0,"x_max":434,"o":"m 239 260 q 254 266 247 260 q 260 282 260 273 l 260 586 q 254 601 260 594 q 239 608 247 608 l 195 608 q 179 601 186 608 q 174 586 174 594 l 174 282 q 179 266 174 273 q 195 260 186 260 l 239 260 m 22 0 q 5 5 12 0 q 0 22 0 12 l 0 673 q 5 688 0 681 q 22 694 12 694 l 412 694 q 427 688 420 694 q 434 673 434 681 l 434 22 q 427 5 434 12 q 412 0 420 0 l 282 0 q 266 5 273 0 q 260 22 260 12 l 260 152 q 254 167 260 160 q 239 174 247 174 l 195 174 q 179 167 186 174 q 174 152 174 160 l 174 22 q 167 5 174 12 q 152 0 160 0 l 22 0 m 22 738 q 5 743 12 738 q 0 760 0 750 l 0 781 l 130 911 l 304 911 l 434 781 l 434 760 q 427 743 434 750 q 412 738 420 738 l 304 738 l 217 825 l 130 738 l 22 738 z "},"Ã":{"ha":646,"x_min":-43,"x_max":521,"o":"m 239 260 q 254 266 247 260 q 260 282 260 273 l 260 586 q 254 601 260 594 q 239 608 247 608 l 195 608 q 179 601 186 608 q 174 586 174 594 l 174 282 q 179 266 174 273 q 195 260 186 260 l 239 260 m 22 0 q 5 5 12 0 q 0 22 0 12 l 0 673 q 5 688 0 681 q 22 694 12 694 l 412 694 q 427 688 420 694 q 434 673 434 681 l 434 22 q 427 5 434 12 q 412 0 420 0 l 282 0 q 266 5 273 0 q 260 22 260 12 l 260 152 q 254 167 260 160 q 239 174 247 174 l 195 174 q 179 167 186 174 q 174 152 174 160 l 174 22 q 167 5 174 12 q 152 0 160 0 l 22 0 m -22 738 q -37 743 -30 738 q -43 760 -43 750 l -43 781 l 87 911 l 260 911 l 347 825 l 434 911 l 499 911 q 514 905 507 911 q 521 890 521 898 l 521 825 l 434 738 l 260 738 l 174 825 l 87 738 l -22 738 z "},"Ä":{"ha":559,"x_min":0,"x_max":434,"o":"m 239 260 q 254 266 247 260 q 260 282 260 273 l 260 586 q 254 601 260 594 q 239 608 247 608 l 195 608 q 179 601 186 608 q 174 586 174 594 l 174 282 q 179 266 174 273 q 195 260 186 260 l 239 260 m 22 0 q 5 5 12 0 q 0 22 0 12 l 0 673 q 5 688 0 681 q 22 694 12 694 l 412 694 q 427 688 420 694 q 434 673 434 681 l 434 22 q 427 5 434 12 q 412 0 420 0 l 282 0 q 266 5 273 0 q 260 22 260 12 l 260 152 q 254 167 260 160 q 239 174 247 174 l 195 174 q 179 167 186 174 q 174 152 174 160 l 174 22 q 167 5 174 12 q 152 0 160 0 l 22 0 m 22 738 q 5 743 12 738 q 0 760 0 750 l 0 890 q 5 905 0 898 q 22 911 12 911 l 152 911 q 167 905 160 911 q 174 890 174 898 l 174 760 q 167 743 174 750 q 152 738 160 738 l 22 738 m 282 738 q 266 743 273 738 q 260 760 260 750 l 260 890 q 266 905 260 898 q 282 911 273 911 l 412 911 q 427 905 420 911 q 434 890 434 898 l 434 760 q 427 743 434 750 q 412 738 420 738 l 282 738 z "},"È":{"ha":559,"x_min":0,"x_max":434,"o":"m 22 0 q 5 5 12 0 q 0 22 0 12 l 0 673 q 5 688 0 681 q 22 694 12 694 l 412 694 q 427 688 420 694 q 434 673 434 681 l 434 369 q 427 353 434 359 q 412 347 420 347 l 282 347 q 266 340 273 347 q 260 326 260 334 l 260 282 q 266 266 260 273 q 282 260 273 260 l 412 260 q 427 254 420 260 q 434 239 434 247 l 434 195 q 427 179 434 186 q 412 174 420 174 l 282 174 q 266 167 273 174 q 260 152 260 160 l 260 109 q 266 92 260 99 q 282 87 273 87 l 412 87 q 427 80 420 87 q 434 65 434 73 l 434 22 q 427 5 434 12 q 412 0 420 0 l 22 0 m 217 738 l 87 868 l 87 933 q 92 948 87 941 q 109 955 99 955 l 174 955 l 304 825 l 304 760 q 297 743 304 750 q 282 738 290 738 l 217 738 z "},"É":{"ha":559,"x_min":0,"x_max":434,"o":"m 22 0 q 5 5 12 0 q 0 22 0 12 l 0 673 q 5 688 0 681 q 22 694 12 694 l 412 694 q 427 688 420 694 q 434 673 434 681 l 434 369 q 427 353 434 359 q 412 347 420 347 l 282 347 q 266 340 273 347 q 260 326 260 334 l 260 282 q 266 266 260 273 q 282 260 273 260 l 412 260 q 427 254 420 260 q 434 239 434 247 l 434 195 q 427 179 434 186 q 412 174 420 174 l 282 174 q 266 167 273 174 q 260 152 260 160 l 260 109 q 266 92 260 99 q 282 87 273 87 l 412 87 q 427 80 420 87 q 434 65 434 73 l 434 22 q 427 5 434 12 q 412 0 420 0 l 22 0 m 152 738 q 136 743 142 738 q 130 760 130 750 l 130 825 l 260 955 l 326 955 q 340 948 334 955 q 347 933 347 941 l 347 868 l 217 738 l 152 738 z "},"Ê":{"ha":559,"x_min":0,"x_max":434,"o":"m 22 0 q 5 5 12 0 q 0 22 0 12 l 0 673 q 5 688 0 681 q 22 694 12 694 l 412 694 q 427 688 420 694 q 434 673 434 681 l 434 369 q 427 353 434 359 q 412 347 420 347 l 282 347 q 266 340 273 347 q 260 326 260 334 l 260 282 q 266 266 260 273 q 282 260 273 260 l 412 260 q 427 254 420 260 q 434 239 434 247 l 434 195 q 427 179 434 186 q 412 174 420 174 l 282 174 q 266 167 273 174 q 260 152 260 160 l 260 109 q 266 92 260 99 q 282 87 273 87 l 412 87 q 427 80 420 87 q 434 65 434 73 l 434 22 q 427 5 434 12 q 412 0 420 0 l 22 0 m 22 738 q 5 743 12 738 q 0 760 0 750 l 0 781 l 130 911 l 304 911 l 434 781 l 434 760 q 427 743 434 750 q 412 738 420 738 l 304 738 l 217 825 l 130 738 l 22 738 z "},"Ë":{"ha":559,"x_min":0,"x_max":434,"o":"m 22 0 q 5 5 12 0 q 0 22 0 12 l 0 673 q 5 688 0 681 q 22 694 12 694 l 412 694 q 427 688 420 694 q 434 673 434 681 l 434 369 q 427 353 434 359 q 412 347 420 347 l 282 347 q 266 340 273 347 q 260 326 260 334 l 260 282 q 266 266 260 273 q 282 260 273 260 l 412 260 q 427 254 420 260 q 434 239 434 247 l 434 195 q 427 179 434 186 q 412 174 420 174 l 282 174 q 266 167 273 174 q 260 152 260 160 l 260 109 q 266 92 260 99 q 282 87 273 87 l 412 87 q 427 80 420 87 q 434 65 434 73 l 434 22 q 427 5 434 12 q 412 0 420 0 l 22 0 m 22 738 q 5 743 12 738 q 0 760 0 750 l 0 890 q 5 905 0 898 q 22 911 12 911 l 152 911 q 167 905 160 911 q 174 890 174 898 l 174 760 q 167 743 174 750 q 152 738 160 738 l 22 738 m 282 738 q 266 743 273 738 q 260 760 260 750 l 260 890 q 266 905 260 898 q 282 911 273 911 l 412 911 q 427 905 420 911 q 434 890 434 898 l 434 760 q 427 743 434 750 q 412 738 420 738 l 282 738 z "},"Ì":{"ha":429,"x_min":87,"x_max":304,"o":"m 152 0 q 136 5 142 0 q 130 22 130 12 l 130 673 q 136 688 130 681 q 152 694 142 694 l 282 694 q 297 688 290 694 q 304 673 304 681 l 304 22 q 297 5 304 12 q 282 0 290 0 l 152 0 m 217 738 l 87 868 l 87 933 q 92 948 87 941 q 109 955 99 955 l 174 955 l 304 825 l 304 760 q 297 743 304 750 q 282 738 290 738 l 217 738 z "},"Í":{"ha":472,"x_min":130,"x_max":347,"o":"m 152 0 q 136 5 142 0 q 130 22 130 12 l 130 673 q 136 688 130 681 q 152 694 142 694 l 282 694 q 297 688 290 694 q 304 673 304 681 l 304 22 q 297 5 304 12 q 282 0 290 0 l 152 0 m 152 738 q 136 743 142 738 q 130 760 130 750 l 130 825 l 260 955 l 326 955 q 340 948 334 955 q 347 933 347 941 l 347 868 l 217 738 l 152 738 z "},"Î":{"ha":559,"x_min":0,"x_max":434,"o":"m 152 0 q 136 5 142 0 q 130 22 130 12 l 130 673 q 136 688 130 681 q 152 694 142 694 l 282 694 q 297 688 290 694 q 304 673 304 681 l 304 22 q 297 5 304 12 q 282 0 290 0 l 152 0 m 22 738 q 5 743 12 738 q 0 760 0 750 l 0 781 l 130 911 l 304 911 l 434 781 l 434 760 q 427 743 434 750 q 412 738 420 738 l 304 738 l 217 825 l 130 738 l 22 738 z "},"Ï":{"ha":559,"x_min":0,"x_max":434,"o":"m 152 0 q 136 5 142 0 q 130 22 130 12 l 130 673 q 136 688 130 681 q 152 694 142 694 l 282 694 q 297 688 290 694 q 304 673 304 681 l 304 22 q 297 5 304 12 q 282 0 290 0 l 152 0 m 22 738 q 5 743 12 738 q 0 760 0 750 l 0 890 q 5 905 0 898 q 22 911 12 911 l 152 911 q 167 905 160 911 q 174 890 174 898 l 174 760 q 167 743 174 750 q 152 738 160 738 l 22 738 m 282 738 q 266 743 273 738 q 260 760 260 750 l 260 890 q 266 905 260 898 q 282 911 273 911 l 412 911 q 427 905 420 911 q 434 890 434 898 l 434 760 q 427 743 434 750 q 412 738 420 738 l 282 738 z "},"Ò":{"ha":559,"x_min":0,"x_max":434,"o":"m 326 87 q 340 92 334 87 q 347 109 347 99 l 347 586 q 340 601 347 594 q 326 608 334 608 l 282 608 q 266 601 273 608 q 260 586 260 594 l 260 109 q 266 92 260 99 q 282 87 273 87 l 326 87 m 22 0 q 5 5 12 0 q 0 22 0 12 l 0 673 q 5 688 0 681 q 22 694 12 694 l 412 694 q 427 688 420 694 q 434 673 434 681 l 434 22 q 427 5 434 12 q 412 0 420 0 l 22 0 m 217 738 l 87 868 l 87 933 q 92 948 87 941 q 109 955 99 955 l 174 955 l 304 825 l 304 760 q 297 743 304 750 q 282 738 290 738 l 217 738 z "},"Ó":{"ha":559,"x_min":0,"x_max":434,"o":"m 326 87 q 340 92 334 87 q 347 109 347 99 l 347 586 q 340 601 347 594 q 326 608 334 608 l 282 608 q 266 601 273 608 q 260 586 260 594 l 260 109 q 266 92 260 99 q 282 87 273 87 l 326 87 m 22 0 q 5 5 12 0 q 0 22 0 12 l 0 673 q 5 688 0 681 q 22 694 12 694 l 412 694 q 427 688 420 694 q 434 673 434 681 l 434 22 q 427 5 434 12 q 412 0 420 0 l 22 0 m 152 738 q 136 743 142 738 q 130 760 130 750 l 130 825 l 260 955 l 326 955 q 340 948 334 955 q 347 933 347 941 l 347 868 l 217 738 l 152 738 z "},"Ô":{"ha":559,"x_min":0,"x_max":434,"o":"m 326 87 q 340 92 334 87 q 347 109 347 99 l 347 586 q 340 601 347 594 q 326 608 334 608 l 282 608 q 266 601 273 608 q 260 586 260 594 l 260 109 q 266 92 260 99 q 282 87 273 87 l 326 87 m 22 0 q 5 5 12 0 q 0 22 0 12 l 0 673 q 5 688 0 681 q 22 694 12 694 l 412 694 q 427 688 420 694 q 434 673 434 681 l 434 22 q 427 5 434 12 q 412 0 420 0 l 22 0 m 22 738 q 5 743 12 738 q 0 760 0 750 l 0 781 l 130 911 l 304 911 l 434 781 l 434 760 q 427 743 434 750 q 412 738 420 738 l 304 738 l 217 825 l 130 738 l 22 738 z "},"Õ":{"ha":646,"x_min":-43,"x_max":521,"o":"m 326 87 q 340 92 334 87 q 347 109 347 99 l 347 586 q 340 601 347 594 q 326 608 334 608 l 282 608 q 266 601 273 608 q 260 586 260 594 l 260 109 q 266 92 260 99 q 282 87 273 87 l 326 87 m 22 0 q 5 5 12 0 q 0 22 0 12 l 0 673 q 5 688 0 681 q 22 694 12 694 l 412 694 q 427 688 420 694 q 434 673 434 681 l 434 22 q 427 5 434 12 q 412 0 420 0 l 22 0 m -22 738 q -37 743 -30 738 q -43 760 -43 750 l -43 781 l 87 911 l 260 911 l 347 825 l 434 911 l 499 911 q 514 905 507 911 q 521 890 521 898 l 521 825 l 434 738 l 260 738 l 174 825 l 87 738 l -22 738 z "},"Ö":{"ha":559,"x_min":0,"x_max":434,"o":"m 326 87 q 340 92 334 87 q 347 109 347 99 l 347 586 q 340 601 347 594 q 326 608 334 608 l 282 608 q 266 601 273 608 q 260 586 260 594 l 260 109 q 266 92 260 99 q 282 87 273 87 l 326 87 m 22 0 q 5 5 12 0 q 0 22 0 12 l 0 673 q 5 688 0 681 q 22 694 12 694 l 412 694 q 427 688 420 694 q 434 673 434 681 l 434 22 q 427 5 434 12 q 412 0 420 0 l 22 0 m 22 738 q 5 743 12 738 q 0 760 0 750 l 0 890 q 5 905 0 898 q 22 911 12 911 l 152 911 q 167 905 160 911 q 174 890 174 898 l 174 760 q 167 743 174 750 q 152 738 160 738 l 22 738 m 282 738 q 266 743 273 738 q 260 760 260 750 l 260 890 q 266 905 260 898 q 282 911 273 911 l 412 911 q 427 905 420 911 q 434 890 434 898 l 434 760 q 427 743 434 750 q 412 738 420 738 l 282 738 z "},"Ù":{"ha":559,"x_min":0,"x_max":434,"o":"m 22 0 q 5 5 12 0 q 0 22 0 12 l 0 673 q 5 688 0 681 q 22 694 12 694 l 152 694 q 167 688 160 694 q 174 673 174 681 l 174 369 q 179 353 174 359 q 195 347 186 347 l 239 347 q 254 353 247 347 q 260 369 260 359 l 260 673 q 266 688 260 681 q 282 694 273 694 l 412 694 q 427 688 420 694 q 434 673 434 681 l 434 22 q 427 5 434 12 q 412 0 420 0 l 22 0 m 217 738 l 87 868 l 87 933 q 92 948 87 941 q 109 955 99 955 l 174 955 l 304 825 l 304 760 q 297 743 304 750 q 282 738 290 738 l 217 738 z "},"Ú":{"ha":559,"x_min":0,"x_max":434,"o":"m 22 0 q 5 5 12 0 q 0 22 0 12 l 0 673 q 5 688 0 681 q 22 694 12 694 l 152 694 q 167 688 160 694 q 174 673 174 681 l 174 369 q 179 353 174 359 q 195 347 186 347 l 239 347 q 254 353 247 347 q 260 369 260 359 l 260 673 q 266 688 260 681 q 282 694 273 694 l 412 694 q 427 688 420 694 q 434 673 434 681 l 434 22 q 427 5 434 12 q 412 0 420 0 l 22 0 m 152 738 q 136 743 142 738 q 130 760 130 750 l 130 825 l 260 955 l 326 955 q 340 948 334 955 q 347 933 347 941 l 347 868 l 217 738 l 152 738 z "},"Û":{"ha":559,"x_min":0,"x_max":434,"o":"m 22 0 q 5 5 12 0 q 0 22 0 12 l 0 673 q 5 688 0 681 q 22 694 12 694 l 152 694 q 167 688 160 694 q 174 673 174 681 l 174 369 q 179 353 174 359 q 195 347 186 347 l 239 347 q 254 353 247 347 q 260 369 260 359 l 260 673 q 266 688 260 681 q 282 694 273 694 l 412 694 q 427 688 420 694 q 434 673 434 681 l 434 22 q 427 5 434 12 q 412 0 420 0 l 22 0 m 22 738 q 5 743 12 738 q 0 760 0 750 l 0 781 l 130 911 l 304 911 l 434 781 l 434 760 q 427 743 434 750 q 412 738 420 738 l 304 738 l 217 825 l 130 738 l 22 738 z "},"Ü":{"ha":559,"x_min":0,"x_max":434,"o":"m 22 0 q 5 5 12 0 q 0 22 0 12 l 0 673 q 5 688 0 681 q 22 694 12 694 l 152 694 q 167 688 160 694 q 174 673 174 681 l 174 369 q 179 353 174 359 q 195 347 186 347 l 239 347 q 254 353 247 347 q 260 369 260 359 l 260 673 q 266 688 260 681 q 282 694 273 694 l 412 694 q 427 688 420 694 q 434 673 434 681 l 434 22 q 427 5 434 12 q 412 0 420 0 l 22 0 m 22 738 q 5 743 12 738 q 0 760 0 750 l 0 890 q 5 905 0 898 q 22 911 12 911 l 152 911 q 167 905 160 911 q 174 890 174 898 l 174 760 q 167 743 174 750 q 152 738 160 738 l 22 738 m 282 738 q 266 743 273 738 q 260 760 260 750 l 260 890 q 266 905 260 898 q 282 911 273 911 l 412 911 q 427 905 420 911 q 434 890 434 898 l 434 760 q 427 743 434 750 q 412 738 420 738 l 282 738 z "},"à":{"ha":559,"x_min":0,"x_max":434,"o":"m 152 87 q 167 92 160 87 q 174 109 174 99 l 174 152 q 167 167 174 160 q 152 174 160 174 l 109 174 q 92 167 99 174 q 87 152 87 160 l 87 109 q 92 92 87 99 q 109 87 99 87 l 152 87 m 22 0 q 5 5 12 0 q 0 22 0 12 l 0 239 q 5 254 0 247 q 22 260 12 260 l 152 260 q 167 266 160 260 q 174 282 174 273 l 174 412 q 167 427 174 420 q 152 434 160 434 l 22 434 q 5 439 12 434 q 0 456 0 446 l 0 499 q 5 514 0 507 q 22 521 12 521 l 412 521 q 427 514 420 521 q 434 499 434 507 l 434 22 q 427 5 434 12 q 412 0 420 0 l 22 0 m 217 564 l 87 694 l 87 760 q 92 774 87 768 q 109 781 99 781 l 174 781 l 304 651 l 304 586 q 297 570 304 576 q 282 564 290 564 l 217 564 z "},"á":{"ha":559,"x_min":0,"x_max":434,"o":"m 152 87 q 167 92 160 87 q 174 109 174 99 l 174 152 q 167 167 174 160 q 152 174 160 174 l 109 174 q 92 167 99 174 q 87 152 87 160 l 87 109 q 92 92 87 99 q 109 87 99 87 l 152 87 m 22 0 q 5 5 12 0 q 0 22 0 12 l 0 239 q 5 254 0 247 q 22 260 12 260 l 152 260 q 167 266 160 260 q 174 282 174 273 l 174 412 q 167 427 174 420 q 152 434 160 434 l 22 434 q 5 439 12 434 q 0 456 0 446 l 0 499 q 5 514 0 507 q 22 521 12 521 l 412 521 q 427 514 420 521 q 434 499 434 507 l 434 22 q 427 5 434 12 q 412 0 420 0 l 22 0 m 152 564 q 136 570 142 564 q 130 586 130 576 l 130 651 l 260 781 l 326 781 q 340 774 334 781 q 347 760 347 768 l 347 694 l 217 564 l 152 564 z "},"â":{"ha":559,"x_min":0,"x_max":434,"o":"m 152 87 q 167 92 160 87 q 174 109 174 99 l 174 152 q 167 167 174 160 q 152 174 160 174 l 109 174 q 92 167 99 174 q 87 152 87 160 l 87 109 q 92 92 87 99 q 109 87 99 87 l 152 87 m 22 0 q 5 5 12 0 q 0 22 0 12 l 0 239 q 5 254 0 247 q 22 260 12 260 l 152 260 q 167 266 160 260 q 174 282 174 273 l 174 412 q 167 427 174 420 q 152 434 160 434 l 22 434 q 5 439 12 434 q 0 456 0 446 l 0 499 q 5 514 0 507 q 22 521 12 521 l 412 521 q 427 514 420 521 q 434 499 434 507 l 434 22 q 427 5 434 12 q 412 0 420 0 l 22 0 m 22 564 q 5 570 12 564 q 0 586 0 576 l 0 608 l 130 738 l 304 738 l 434 608 l 434 586 q 427 570 434 576 q 412 564 420 564 l 304 564 l 217 651 l 130 564 l 22 564 z "},"ã":{"ha":646,"x_min":-43,"x_max":521,"o":"m 152 87 q 167 92 160 87 q 174 109 174 99 l 174 152 q 167 167 174 160 q 152 174 160 174 l 109 174 q 92 167 99 174 q 87 152 87 160 l 87 109 q 92 92 87 99 q 109 87 99 87 l 152 87 m 22 0 q 5 5 12 0 q 0 22 0 12 l 0 239 q 5 254 0 247 q 22 260 12 260 l 152 260 q 167 266 160 260 q 174 282 174 273 l 174 412 q 167 427 174 420 q 152 434 160 434 l 22 434 q 5 439 12 434 q 0 456 0 446 l 0 499 q 5 514 0 507 q 22 521 12 521 l 412 521 q 427 514 420 521 q 434 499 434 507 l 434 22 q 427 5 434 12 q 412 0 420 0 l 22 0 m -22 564 q -37 570 -30 564 q -43 586 -43 576 l -43 608 l 87 738 l 260 738 l 347 651 l 434 738 l 499 738 q 514 731 507 738 q 521 716 521 724 l 521 651 l 434 564 l 260 564 l 174 651 l 87 564 l -22 564 z "},"ä":{"ha":559,"x_min":0,"x_max":434,"o":"m 152 87 q 167 92 160 87 q 174 109 174 99 l 174 152 q 167 167 174 160 q 152 174 160 174 l 109 174 q 92 167 99 174 q 87 152 87 160 l 87 109 q 92 92 87 99 q 109 87 99 87 l 152 87 m 22 0 q 5 5 12 0 q 0 22 0 12 l 0 239 q 5 254 0 247 q 22 260 12 260 l 152 260 q 167 266 160 260 q 174 282 174 273 l 174 412 q 167 427 174 420 q 152 434 160 434 l 22 434 q 5 439 12 434 q 0 456 0 446 l 0 499 q 5 514 0 507 q 22 521 12 521 l 412 521 q 427 514 420 521 q 434 499 434 507 l 434 22 q 427 5 434 12 q 412 0 420 0 l 22 0 m 22 564 q 5 570 12 564 q 0 586 0 576 l 0 716 q 5 731 0 724 q 22 738 12 738 l 152 738 q 167 731 160 738 q 174 716 174 724 l 174 586 q 167 570 174 576 q 152 564 160 564 l 22 564 m 282 564 q 266 570 273 564 q 260 586 260 576 l 260 716 q 266 731 260 724 q 282 738 273 738 l 412 738 q 427 731 420 738 q 434 716 434 724 l 434 586 q 427 570 434 576 q 412 564 420 564 l 282 564 z "},"è":{"ha":559,"x_min":0,"x_max":434,"o":"m 326 260 q 340 266 334 260 q 347 282 347 273 l 347 412 q 340 427 347 420 q 326 434 334 434 l 282 434 q 266 427 273 434 q 260 412 260 420 l 260 282 q 266 266 260 273 q 282 260 273 260 l 326 260 m 22 0 q 5 5 12 0 q 0 22 0 12 l 0 499 q 5 514 0 507 q 22 521 12 521 l 412 521 q 427 514 420 521 q 434 499 434 507 l 434 195 q 427 179 434 186 q 412 174 420 174 l 282 174 q 266 167 273 174 q 260 152 260 160 l 260 109 q 266 92 260 99 q 282 87 273 87 l 412 87 q 427 80 420 87 q 434 65 434 73 l 434 22 q 427 5 434 12 q 412 0 420 0 l 22 0 m 217 564 l 87 694 l 87 760 q 92 774 87 768 q 109 781 99 781 l 174 781 l 304 651 l 304 586 q 297 570 304 576 q 282 564 290 564 l 217 564 z "},"é":{"ha":559,"x_min":0,"x_max":434,"o":"m 326 260 q 340 266 334 260 q 347 282 347 273 l 347 412 q 340 427 347 420 q 326 434 334 434 l 282 434 q 266 427 273 434 q 260 412 260 420 l 260 282 q 266 266 260 273 q 282 260 273 260 l 326 260 m 22 0 q 5 5 12 0 q 0 22 0 12 l 0 499 q 5 514 0 507 q 22 521 12 521 l 412 521 q 427 514 420 521 q 434 499 434 507 l 434 195 q 427 179 434 186 q 412 174 420 174 l 282 174 q 266 167 273 174 q 260 152 260 160 l 260 109 q 266 92 260 99 q 282 87 273 87 l 412 87 q 427 80 420 87 q 434 65 434 73 l 434 22 q 427 5 434 12 q 412 0 420 0 l 22 0 m 152 564 q 136 570 142 564 q 130 586 130 576 l 130 651 l 260 781 l 326 781 q 340 774 334 781 q 347 760 347 768 l 347 694 l 217 564 l 152 564 z "},"ê":{"ha":559,"x_min":0,"x_max":434,"o":"m 326 260 q 340 266 334 260 q 347 282 347 273 l 347 412 q 340 427 347 420 q 326 434 334 434 l 282 434 q 266 427 273 434 q 260 412 260 420 l 260 282 q 266 266 260 273 q 282 260 273 260 l 326 260 m 22 0 q 5 5 12 0 q 0 22 0 12 l 0 499 q 5 514 0 507 q 22 521 12 521 l 412 521 q 427 514 420 521 q 434 499 434 507 l 434 195 q 427 179 434 186 q 412 174 420 174 l 282 174 q 266 167 273 174 q 260 152 260 160 l 260 109 q 266 92 260 99 q 282 87 273 87 l 412 87 q 427 80 420 87 q 434 65 434 73 l 434 22 q 427 5 434 12 q 412 0 420 0 l 22 0 m 22 564 q 5 570 12 564 q 0 586 0 576 l 0 608 l 130 738 l 304 738 l 434 608 l 434 586 q 427 570 434 576 q 412 564 420 564 l 304 564 l 217 651 l 130 564 l 22 564 z "},"ë":{"ha":559,"x_min":0,"x_max":434,"o":"m 326 260 q 340 266 334 260 q 347 282 347 273 l 347 412 q 340 427 347 420 q 326 434 334 434 l 282 434 q 266 427 273 434 q 260 412 260 420 l 260 282 q 266 266 260 273 q 282 260 273 260 l 326 260 m 22 0 q 5 5 12 0 q 0 22 0 12 l 0 499 q 5 514 0 507 q 22 521 12 521 l 412 521 q 427 514 420 521 q 434 499 434 507 l 434 195 q 427 179 434 186 q 412 174 420 174 l 282 174 q 266 167 273 174 q 260 152 260 160 l 260 109 q 266 92 260 99 q 282 87 273 87 l 412 87 q 427 80 420 87 q 434 65 434 73 l 434 22 q 427 5 434 12 q 412 0 420 0 l 22 0 m 22 564 q 5 570 12 564 q 0 586 0 576 l 0 716 q 5 731 0 724 q 22 738 12 738 l 152 738 q 167 731 160 738 q 174 716 174 724 l 174 586 q 167 570 174 576 q 152 564 160 564 l 22 564 m 282 564 q 266 570 273 564 q 260 586 260 576 l 260 716 q 266 731 260 724 q 282 738 273 738 l 412 738 q 427 731 420 738 q 434 716 434 724 l 434 586 q 427 570 434 576 q 412 564 420 564 l 282 564 z "},"ì":{"ha":385,"x_min":0,"x_max":260,"o":"m 22 0 q 5 5 12 0 q 0 22 0 12 l 0 499 q 5 514 0 507 q 22 521 12 521 l 239 521 q 254 514 247 521 q 260 499 260 507 l 260 22 q 254 5 260 12 q 239 0 247 0 l 22 0 m 130 564 l 0 694 l 0 760 q 5 774 0 768 q 22 781 12 781 l 87 781 l 217 651 l 217 586 q 210 570 217 576 q 195 564 203 564 l 130 564 z "},"í":{"ha":385,"x_min":0,"x_max":260,"o":"m 22 0 q 5 5 12 0 q 0 22 0 12 l 0 499 q 5 514 0 507 q 22 521 12 521 l 239 521 q 254 514 247 521 q 260 499 260 507 l 260 22 q 254 5 260 12 q 239 0 247 0 l 22 0 m 65 564 q 49 570 56 564 q 43 586 43 576 l 43 651 l 174 781 l 239 781 q 254 774 247 781 q 260 760 260 768 l 260 694 l 130 564 l 65 564 z "},"î":{"ha":559,"x_min":0,"x_max":434,"o":"m 109 0 q 92 5 99 0 q 87 22 87 12 l 87 499 q 92 514 87 507 q 109 521 99 521 l 326 521 q 340 514 334 521 q 347 499 347 507 l 347 22 q 340 5 347 12 q 326 0 334 0 l 109 0 m 22 564 q 5 570 12 564 q 0 586 0 576 l 0 608 l 130 738 l 304 738 l 434 608 l 434 586 q 427 570 434 576 q 412 564 420 564 l 304 564 l 217 651 l 130 564 l 22 564 z "},"ï":{"ha":559,"x_min":0,"x_max":434,"o":"m 109 0 q 92 5 99 0 q 87 22 87 12 l 87 499 q 92 514 87 507 q 109 521 99 521 l 326 521 q 340 514 334 521 q 347 499 347 507 l 347 22 q 340 5 347 12 q 326 0 334 0 l 109 0 m 22 564 q 5 570 12 564 q 0 586 0 576 l 0 716 q 5 731 0 724 q 22 738 12 738 l 152 738 q 167 731 160 738 q 174 716 174 724 l 174 586 q 167 570 174 576 q 152 564 160 564 l 22 564 m 282 564 q 266 570 273 564 q 260 586 260 576 l 260 716 q 266 731 260 724 q 282 738 273 738 l 412 738 q 427 731 420 738 q 434 716 434 724 l 434 586 q 427 570 434 576 q 412 564 420 564 l 282 564 z "},"ò":{"ha":559,"x_min":0,"x_max":434,"o":"m 326 87 q 340 92 334 87 q 347 109 347 99 l 347 412 q 340 427 347 420 q 326 434 334 434 l 282 434 q 266 427 273 434 q 260 412 260 420 l 260 109 q 266 92 260 99 q 282 87 273 87 l 326 87 m 22 0 q 5 5 12 0 q 0 22 0 12 l 0 499 q 5 514 0 507 q 22 521 12 521 l 412 521 q 427 514 420 521 q 434 499 434 507 l 434 22 q 427 5 434 12 q 412 0 420 0 l 22 0 m 217 564 l 87 694 l 87 760 q 92 774 87 768 q 109 781 99 781 l 174 781 l 304 651 l 304 586 q 297 570 304 576 q 282 564 290 564 l 217 564 z "},"ó":{"ha":559,"x_min":0,"x_max":434,"o":"m 326 87 q 340 92 334 87 q 347 109 347 99 l 347 412 q 340 427 347 420 q 326 434 334 434 l 282 434 q 266 427 273 434 q 260 412 260 420 l 260 109 q 266 92 260 99 q 282 87 273 87 l 326 87 m 22 0 q 5 5 12 0 q 0 22 0 12 l 0 499 q 5 514 0 507 q 22 521 12 521 l 412 521 q 427 514 420 521 q 434 499 434 507 l 434 22 q 427 5 434 12 q 412 0 420 0 l 22 0 m 152 564 q 136 570 142 564 q 130 586 130 576 l 130 651 l 260 781 l 326 781 q 340 774 334 781 q 347 760 347 768 l 347 694 l 217 564 l 152 564 z "},"ô":{"ha":559,"x_min":0,"x_max":434,"o":"m 326 87 q 340 92 334 87 q 347 109 347 99 l 347 412 q 340 427 347 420 q 326 434 334 434 l 282 434 q 266 427 273 434 q 260 412 260 420 l 260 109 q 266 92 260 99 q 282 87 273 87 l 326 87 m 22 0 q 5 5 12 0 q 0 22 0 12 l 0 499 q 5 514 0 507 q 22 521 12 521 l 412 521 q 427 514 420 521 q 434 499 434 507 l 434 22 q 427 5 434 12 q 412 0 420 0 l 22 0 m 22 564 q 5 570 12 564 q 0 586 0 576 l 0 608 l 130 738 l 304 738 l 434 608 l 434 586 q 427 570 434 576 q 412 564 420 564 l 304 564 l 217 651 l 130 564 l 22 564 z "},"õ":{"ha":646,"x_min":-43,"x_max":521,"o":"m 326 87 q 340 92 334 87 q 347 109 347 99 l 347 412 q 340 427 347 420 q 326 434 334 434 l 282 434 q 266 427 273 434 q 260 412 260 420 l 260 109 q 266 92 260 99 q 282 87 273 87 l 326 87 m 22 0 q 5 5 12 0 q 0 22 0 12 l 0 499 q 5 514 0 507 q 22 521 12 521 l 412 521 q 427 514 420 521 q 434 499 434 507 l 434 22 q 427 5 434 12 q 412 0 420 0 l 22 0 m -22 564 q -37 570 -30 564 q -43 586 -43 576 l -43 608 l 87 738 l 260 738 l 347 651 l 434 738 l 499 738 q 514 731 507 738 q 521 716 521 724 l 521 651 l 434 564 l 260 564 l 174 651 l 87 564 l -22 564 z "},"ö":{"ha":559,"x_min":0,"x_max":434,"o":"m 326 87 q 340 92 334 87 q 347 109 347 99 l 347 412 q 340 427 347 420 q 326 434 334 434 l 282 434 q 266 427 273 434 q 260 412 260 420 l 260 109 q 266 92 260 99 q 282 87 273 87 l 326 87 m 22 0 q 5 5 12 0 q 0 22 0 12 l 0 499 q 5 514 0 507 q 22 521 12 521 l 412 521 q 427 514 420 521 q 434 499 434 507 l 434 22 q 427 5 434 12 q 412 0 420 0 l 22 0 m 22 564 q 5 570 12 564 q 0 586 0 576 l 0 716 q 5 731 0 724 q 22 738 12 738 l 152 738 q 167 731 160 738 q 174 716 174 724 l 174 586 q 167 570 174 576 q 152 564 160 564 l 22 564 m 282 564 q 266 570 273 564 q 260 586 260 576 l 260 716 q 266 731 260 724 q 282 738 273 738 l 412 738 q 427 731 420 738 q 434 716 434 724 l 434 586 q 427 570 434 576 q 412 564 420 564 l 282 564 z "},"ù":{"ha":559,"x_min":0,"x_max":434,"o":"m 22 0 q 5 5 12 0 q 0 22 0 12 l 0 499 q 5 514 0 507 q 22 521 12 521 l 152 521 q 167 514 160 521 q 174 499 174 507 l 174 239 q 179 222 174 229 q 195 217 186 217 l 239 217 q 254 222 247 217 q 260 239 260 229 l 260 499 q 266 514 260 507 q 282 521 273 521 l 412 521 q 427 514 420 521 q 434 499 434 507 l 434 22 q 427 5 434 12 q 412 0 420 0 l 22 0 m 217 564 l 87 694 l 87 760 q 92 774 87 768 q 109 781 99 781 l 174 781 l 304 651 l 304 586 q 297 570 304 576 q 282 564 290 564 l 217 564 z "},"ú":{"ha":559,"x_min":0,"x_max":434,"o":"m 22 0 q 5 5 12 0 q 0 22 0 12 l 0 499 q 5 514 0 507 q 22 521 12 521 l 152 521 q 167 514 160 521 q 174 499 174 507 l 174 239 q 179 222 174 229 q 195 217 186 217 l 239 217 q 254 222 247 217 q 260 239 260 229 l 260 499 q 266 514 260 507 q 282 521 273 521 l 412 521 q 427 514 420 521 q 434 499 434 507 l 434 22 q 427 5 434 12 q 412 0 420 0 l 22 0 m 152 564 q 136 570 142 564 q 130 586 130 576 l 130 651 l 260 781 l 326 781 q 340 774 334 781 q 347 760 347 768 l 347 694 l 217 564 l 152 564 z "},"û":{"ha":559,"x_min":0,"x_max":434,"o":"m 22 0 q 5 5 12 0 q 0 22 0 12 l 0 499 q 5 514 0 507 q 22 521 12 521 l 152 521 q 167 514 160 521 q 174 499 174 507 l 174 239 q 179 222 174 229 q 195 217 186 217 l 239 217 q 254 222 247 217 q 260 239 260 229 l 260 499 q 266 514 260 507 q 282 521 273 521 l 412 521 q 427 514 420 521 q 434 499 434 507 l 434 22 q 427 5 434 12 q 412 0 420 0 l 22 0 m 22 564 q 5 570 12 564 q 0 586 0 576 l 0 608 l 130 738 l 304 738 l 434 608 l 434 586 q 427 570 434 576 q 412 564 420 564 l 304 564 l 217 651 l 130 564 l 22 564 z "},"ü":{"ha":559,"x_min":0,"x_max":434,"o":"m 22 0 q 5 5 12 0 q 0 22 0 12 l 0 499 q 5 514 0 507 q 22 521 12 521 l 152 521 q 167 514 160 521 q 174 499 174 507 l 174 239 q 179 222 174 229 q 195 217 186 217 l 239 217 q 254 222 247 217 q 260 239 260 229 l 260 499 q 266 514 260 507 q 282 521 273 521 l 412 521 q 427 514 420 521 q 434 499 434 507 l 434 22 q 427 5 434 12 q 412 0 420 0 l 22 0 m 22 564 q 5 570 12 564 q 0 586 0 576 l 0 716 q 5 731 0 724 q 22 738 12 738 l 152 738 q 167 731 160 738 q 174 716 174 724 l 174 586 q 167 570 174 576 q 152 564 160 564 l 22 564 m 282 564 q 266 570 273 564 q 260 586 260 576 l 260 716 q 266 731 260 724 q 282 738 273 738 l 412 738 q 427 731 420 738 q 434 716 434 724 l 434 586 q 427 570 434 576 q 412 564 420 564 l 282 564 z "},"‘":{"ha":298,"x_min":0,"x_max":174,"o":"m 22 434 q 5 439 12 434 q 0 456 0 446 l 0 673 q 5 688 0 681 q 22 694 12 694 l 152 694 q 167 688 160 694 q 174 673 174 681 l 174 543 q 167 526 174 533 q 152 521 160 521 l 109 521 q 92 514 99 521 q 87 499 87 507 l 87 456 q 80 439 87 446 q 65 434 73 434 l 22 434 z "},"’":{"ha":298,"x_min":0,"x_max":174,"o":"m 109 434 q 92 439 99 434 q 87 456 87 446 l 87 499 q 80 514 87 507 q 65 521 73 521 l 22 521 q 5 526 12 521 q 0 543 0 533 l 0 673 q 5 688 0 681 q 22 694 12 694 l 152 694 q 167 688 160 694 q 174 673 174 681 l 174 456 q 167 439 174 446 q 152 434 160 434 l 109 434 z "},"“":{"ha":515,"x_min":0,"x_max":391,"o":"m 22 434 q 5 439 12 434 q 0 456 0 446 l 0 673 q 5 688 0 681 q 22 694 12 694 l 152 694 q 167 688 160 694 q 174 673 174 681 l 174 543 q 167 526 174 533 q 152 521 160 521 l 109 521 q 92 514 99 521 q 87 499 87 507 l 87 456 q 80 439 87 446 q 65 434 73 434 l 22 434 m 239 434 q 222 439 229 434 q 217 456 217 446 l 217 673 q 222 688 217 681 q 239 694 229 694 l 369 694 q 384 688 377 694 q 391 673 391 681 l 391 543 q 384 526 391 533 q 369 521 377 521 l 326 521 q 309 514 316 521 q 304 499 304 507 l 304 456 q 297 439 304 446 q 282 434 290 434 l 239 434 z "},"”":{"ha":515,"x_min":0,"x_max":391,"o":"m 109 434 q 92 439 99 434 q 87 456 87 446 l 87 499 q 80 514 87 507 q 65 521 73 521 l 22 521 q 5 526 12 521 q 0 543 0 533 l 0 673 q 5 688 0 681 q 22 694 12 694 l 152 694 q 167 688 160 694 q 174 673 174 681 l 174 456 q 167 439 174 446 q 152 434 160 434 l 109 434 m 326 434 q 309 439 316 434 q 304 456 304 446 l 304 499 q 297 514 304 507 q 282 521 290 521 l 239 521 q 222 526 229 521 q 217 543 217 533 l 217 673 q 222 688 217 681 q 239 694 229 694 l 369 694 q 384 688 377 694 q 391 673 391 681 l 391 456 q 384 439 391 446 q 369 434 377 434 l 326 434 z "}}}
